<?xml version="1.0" encoding="UTF-8"?>
<svg width="32px" height="32px" viewBox="0 0 32 32" version="1.1" xmlns="http://www.w3.org/2000/svg" xmlns:xlink="http://www.w3.org/1999/xlink">
    <!-- Generator: sketchtool 58 (101010) - https://sketch.com -->
    <title>DAA89928-C757-44EE-BFE4-DDBDD168DC2F</title>
    <desc>Created with sketchtool.</desc>
    <g id="Page-1" stroke="none" stroke-width="1" fill="none" fill-rule="evenodd">
        <g id="Flixxo--HOME---Usuario-Registrado" transform="translate(-315.000000, -413.000000)">
            <g id="Group-10" transform="translate(315.000000, 411.000000)">
                <g id="Group-8" transform="translate(0.000000, 2.000000)">
                    <path d="M16,0 C24.837,0 32,7.163 32,16 C32,24.836 24.837,32 16,32 C7.164,32 0,24.836 0,16 C0,7.163 7.164,0 16,0" id="Fill-21" fill="#F2C22F"></path>
                    <path d="M19.374,12.616 L16.564,12.616 L16.564,12.402 C16.52,11.545 16.811,10.704 17.376,10.059 C17.928,9.469 18.708,9.149 19.515,9.182 C19.835,9.196 20.147,9.084 20.388,8.872 C20.611,8.676 20.736,8.389 20.728,8.091 C20.735,7.792 20.608,7.506 20.383,7.31 C20.143,7.098 19.829,6.988 19.51,7.002 C18.533,6.982 17.569,7.224 16.718,7.702 C15.906,8.161 15.246,8.846 14.817,9.674 C14.35,10.526 14.116,11.487 14.142,12.458 L14.142,12.615 L13.118,12.615 C12.822,12.601 12.532,12.704 12.311,12.902 C12.103,13.097 11.99,13.373 12.002,13.658 C11.995,13.931 12.108,14.193 12.312,14.374 C12.534,14.571 12.823,14.673 13.119,14.658 L14.144,14.658 L14.144,16.163 L13.118,16.163 C12.823,16.151 12.534,16.252 12.312,16.447 C12.104,16.641 11.992,16.914 12.001,17.197 C11.994,17.469 12.107,17.729 12.312,17.908 C12.532,18.106 12.822,18.209 13.118,18.196 L14.144,18.196 L14.144,23.113 C14.13,23.439 14.253,23.756 14.483,23.986 C14.7,24.203 14.996,24.3241233 15.304,24.322 C15.645,24.342 15.981,24.22 16.232,23.986 C16.459,23.753 16.579,23.437 16.564,23.113 L16.564,18.196 L17.838,18.196 C18.136,18.209 18.428,18.106 18.65,17.908 C18.851,17.727 18.963,17.467 18.955,17.197 C18.968,16.91 18.857,16.632 18.65,16.433 C18.424,16.243 18.134,16.146 17.838,16.162 L16.564,16.162 L16.564,14.658 L19.374,14.658 C19.67,14.673 19.96,14.571 20.182,14.374 C20.385,14.193 20.499,13.931 20.491,13.658 C20.504,13.372 20.391,13.095 20.182,12.899 C19.96,12.703 19.67,12.601 19.374,12.616" id="Fill-23" fill="#FFFFFF"></path>
                </g>
            </g>
        </g>
    </g>
</svg>