<svg xmlns="http://www.w3.org/2000/svg" width="177" height="54" viewBox="0 0 177 54">
    <g fill="none">
        <path stroke="#979797" stroke-width="1.5" d="M168.828 51.84H6.132C2.75 51.84.006 49.101 0 45.72V6.127C.005 2.744 2.748.003 6.132 0h162.694c3.384.004 6.126 2.744 6.133 6.127V45.72c.002 3.376-2.753 6.12-6.131 6.12h0z" transform="translate(1 1)"/>
        <path fill="#FFF" d="M39.067 25.647c-.038-4.178 3.422-6.21 3.58-6.305-1.96-2.856-4.996-3.246-6.063-3.278-2.55-.268-5.025 1.526-6.324 1.526-1.325 0-3.326-1.5-5.483-1.456-2.775.043-5.37 1.65-6.794 4.144-2.939 5.085-.747 12.559 2.068 16.67 1.408 2.014 3.054 4.26 5.207 4.181 2.108-.085 2.895-1.341 5.437-1.341 2.52 0 3.26 1.341 5.456 1.29 2.261-.034 3.685-2.021 5.044-4.053 1.627-2.306 2.28-4.58 2.307-4.696-.052-.019-4.39-1.675-4.435-6.682zm-4.15-12.287c1.134-1.417 1.91-3.344 1.694-5.3-1.64.072-3.692 1.134-4.873 2.52-1.045 1.22-1.979 3.222-1.738 5.105 1.843.137 3.735-.93 4.918-2.325zM69.587 40.84h-2.944l-1.614-5.067h-5.606l-1.537 5.067h-2.867l5.556-17.251h3.431l5.581 17.251zm-5.044-7.193l-1.459-4.505c-.154-.46-.444-1.544-.87-3.25h-.052c-.17.734-.444 1.818-.819 3.25l-1.434 4.505h4.634zm19.306.82c0 2.116-.575 3.788-1.725 5.016-1.03 1.093-2.31 1.639-3.836 1.639-1.648 0-2.833-.588-3.553-1.765v6.528h-2.764V32.489c0-1.328-.035-2.691-.103-4.088H74.3l.154 1.971h.052c.922-1.485 2.32-2.228 4.198-2.228 1.468 0 2.694.58 3.674 1.74.98 1.162 1.47 2.69 1.47 4.584zm-2.817.102c0-1.211-.272-2.21-.82-2.996-.597-.818-1.4-1.228-2.406-1.228-.682 0-1.302.228-1.856.678-.555.454-.918 1.046-1.088 1.78-.075.274-.119.557-.128.841v2.076c0 .903.277 1.667.832 2.292.555.622 1.276.934 2.163.934 1.042 0 1.852-.403 2.432-1.203.58-.802.871-1.86.871-3.174zm17.128-.101c0 2.115-.574 3.787-1.724 5.015-1.031 1.093-2.31 1.639-3.837 1.639-1.648 0-2.834-.588-3.553-1.765v6.528H86.28V32.489c0-1.328-.035-2.691-.102-4.088h2.431l.154 1.971h.052c.92-1.485 2.32-2.228 4.199-2.228 1.466 0 2.692.58 3.675 1.74.977 1.162 1.47 2.69 1.47 4.584zm-2.818.1c0-1.21-.273-2.208-.82-2.995-.598-.818-1.398-1.228-2.404-1.228-.683 0-1.302.228-1.859.678-.555.454-.916 1.046-1.086 1.78-.085.342-.13.621-.13.841v2.076c0 .903.279 1.667.831 2.292.555.62 1.276.934 2.166.934 1.042 0 1.853-.403 2.431-1.203.581-.802.871-1.86.871-3.174zm18.82 1.433c0 1.469-.514 2.663-1.535 3.585-1.122 1.006-2.69 1.51-4.7 1.51-1.857 0-3.346-.358-4.469-1.075l.64-2.304c1.212.719 2.544 1.076 3.994 1.076 1.042 0 1.853-.235 2.43-.703.58-.47.874-1.097.874-1.88 0-.702-.243-1.289-.719-1.767-.478-.477-1.27-.922-2.38-1.33-3.022-1.127-4.534-2.774-4.534-4.942 0-1.416.534-2.574 1.6-3.48 1.066-.905 2.48-1.358 4.238-1.358 1.57 0 2.879.274 3.917.82l-.693 2.252c-.978-.528-2.082-.793-3.316-.793-.975 0-1.74.24-2.287.717-.46.426-.694.946-.694 1.563 0 .681.266 1.246.795 1.69.459.408 1.296.853 2.507 1.33 1.486.599 2.578 1.296 3.277 2.097.704.801 1.054 1.8 1.054 2.992zm9.163-5.526h-3.047v6.04c0 1.536.537 2.302 1.613 2.302.494 0 .904-.042 1.228-.129l.077 2.1c-.545.203-1.262.305-2.15.305-1.092 0-1.945-.333-2.561-1-.614-.666-.922-1.782-.922-3.353v-6.27h-1.816v-2.075h1.816v-2.277l2.715-.82v3.097h3.047v2.08zm13.722 4.043c0 1.912-.547 3.482-1.64 4.71-1.142 1.264-2.661 1.894-4.556 1.894-1.828 0-3.282-.606-4.366-1.815-1.084-1.212-1.626-2.74-1.626-4.582 0-1.927.56-3.506 1.677-4.734 1.119-1.229 2.626-1.843 4.52-1.843 1.826 0 3.292.606 4.402 1.817 1.061 1.175 1.589 2.692 1.589 4.553zm-2.866.064c0-1.14-.246-2.117-.74-2.935-.58-.988-1.41-1.482-2.485-1.482-1.107 0-1.956.494-2.535 1.482-.495.818-.741 1.812-.741 2.986 0 1.141.246 2.121.741 2.937.598.988 1.432 1.481 2.512 1.481 1.057 0 1.885-.504 2.484-1.506.509-.837.764-1.821.764-2.963zm11.856-3.75c-.288-.053-.58-.078-.871-.077-.973 0-1.725.365-2.254 1.102-.46.648-.69 1.467-.69 2.456v6.527h-2.765v-8.522c.003-1.306-.024-2.611-.08-3.916h2.408l.101 2.38h.077c.293-.818.752-1.478 1.382-1.972.577-.431 1.278-.665 1.998-.666.256 0 .486.018.691.05l.003 2.637zm12.364 3.2c.007.42-.027.84-.101 1.254h-8.294c.031 1.228.433 2.17 1.203 2.818.7.578 1.603.868 2.713.868 1.228 0 2.348-.194 3.356-.587l.433 1.917c-1.177.514-2.567.77-4.171.77-1.93 0-3.444-.569-4.547-1.702-1.1-1.134-1.65-2.658-1.65-4.568 0-1.875.512-3.437 1.538-4.682 1.073-1.33 2.524-1.996 4.35-1.996 1.793 0 3.151.665 4.073 1.996.73 1.053 1.097 2.36 1.097 3.912zm-2.636-.717c.02-.82-.162-1.527-.537-2.125-.479-.77-1.215-1.153-2.202-1.153-.904 0-1.64.374-2.2 1.126-.46.598-.734 1.316-.819 2.15l5.758.002zM58.625 17.49c-.769 0-1.434-.038-1.988-.102v-8.34c.775-.12 1.557-.18 2.34-.177 3.171 0 4.631 1.56 4.631 4.102 0 2.932-1.724 4.516-4.983 4.516zm.464-7.55c-.428 0-.792.026-1.094.089v6.34c.163.026.477.038.918.038 2.077 0 3.26-1.183 3.26-3.397 0-1.974-1.07-3.07-3.084-3.07zm9.07 7.613c-1.787 0-2.945-1.334-2.945-3.145 0-1.888 1.182-3.233 3.046-3.233 1.76 0 2.944 1.27 2.944 3.133 0 1.91-1.22 3.245-3.046 3.245zm.051-5.385c-.981 0-1.61.917-1.61 2.2 0 1.26.642 2.177 1.597 2.177.956 0 1.598-.98 1.598-2.202 0-1.245-.629-2.175-1.585-2.175zm13.184-.868l-1.913 6.114h-1.246l-.792-2.655c-.197-.65-.361-1.308-.492-1.974h-.026c-.1.666-.289 1.334-.49 1.974l-.843 2.655h-1.259l-1.8-6.114h1.397l.692 2.907c.164.692.301 1.345.415 1.962h.026c.1-.514.264-1.157.503-1.95l.87-2.917h1.107l.83 2.856c.202.692.365 1.371.492 2.013h.037c.088-.629.227-1.297.415-2.013l.743-2.856 1.334-.002zm7.04 6.114h-1.358v-3.51c0-1.082-.415-1.624-1.233-1.624-.805 0-1.36.693-1.36 1.498v3.636h-1.358v-4.366c0-.54-.013-1.12-.05-1.749h1.195l.063.944h.038c.366-.654 1.107-1.068 1.939-1.068 1.283 0 2.126.98 2.126 2.578l-.001 3.661zm3.748 0h-1.36V8.495h1.36v8.919zm4.955.139c-1.785 0-2.945-1.334-2.945-3.145 0-1.888 1.183-3.233 3.045-3.233 1.762 0 2.945 1.27 2.945 3.133.001 1.91-1.22 3.245-3.045 3.245zm.05-5.385c-.98 0-1.61.917-1.61 2.2 0 1.26.643 2.177 1.596 2.177.957 0 1.598-.98 1.598-2.202.001-1.245-.626-2.175-1.583-2.175zm8.353 5.246l-.099-.704h-.036c-.415.567-1.02.843-1.788.843-1.096 0-1.874-.768-1.874-1.8 0-1.509 1.308-2.289 3.574-2.289v-.113c0-.805-.427-1.208-1.27-1.208-.603 0-1.132.152-1.597.454l-.277-.893c.566-.353 1.271-.53 2.1-.53 1.597 0 2.404.843 2.404 2.53v2.252c0 .617.027 1.095.088 1.46l-1.225-.002zm-.187-3.045c-1.51 0-2.267.365-2.267 1.233 0 .641.39.955.933.955.69 0 1.334-.528 1.334-1.244v-.944zm7.923 3.045l-.064-.981h-.037c-.39.741-1.047 1.12-1.964 1.12-1.474 0-2.566-1.297-2.566-3.12 0-1.913 1.132-3.26 2.678-3.26.818 0 1.398.276 1.725.831h.027V8.495h1.36v7.271c0 .591.014 1.145.05 1.648h-1.21zm-.201-3.597c0-.856-.567-1.586-1.432-1.586-1.007 0-1.623.893-1.623 2.15 0 1.234.64 2.078 1.596 2.078.855 0 1.459-.743 1.459-1.623v-1.02zm9.984 3.736c-1.785 0-2.943-1.334-2.943-3.145 0-1.888 1.182-3.233 3.045-3.233 1.762 0 2.944 1.27 2.944 3.133.002 1.91-1.219 3.245-3.046 3.245zm.051-5.385c-.98 0-1.61.917-1.61 2.2 0 1.26.643 2.177 1.597 2.177.957 0 1.598-.98 1.598-2.202.002-1.245-.627-2.175-1.585-2.175zm10.304 5.246h-1.36v-3.51c0-1.082-.416-1.624-1.234-1.624-.805 0-1.357.693-1.357 1.498v3.636h-1.36v-4.366c0-.54-.014-1.12-.051-1.749h1.195l.064.944h.037c.365-.654 1.108-1.07 1.938-1.07 1.283 0 2.128.982 2.128 2.579v3.662zm9.143-5.095h-1.496v2.969c0 .756.262 1.133.791 1.133.24 0 .441-.026.603-.064l.038 1.032c-.263.101-.616.152-1.054.152-1.071 0-1.712-.591-1.712-2.139v-3.083h-.892V11.3h.892v-1.12l1.334-.403V11.3h1.496v1.02zm7.194 5.095h-1.358v-3.485c0-1.094-.414-1.647-1.233-1.647-.704 0-1.36.478-1.36 1.446v3.686h-1.358V8.495h1.358v3.673h.027c.428-.667 1.048-.995 1.839-.995 1.294 0 2.085 1.006 2.085 2.605v3.636zm7.37-2.73h-4.078c.026 1.157.792 1.81 1.927 1.81.603 0 1.158-.1 1.648-.288l.211.943c-.578.252-1.259.378-2.051.378-1.913 0-3.045-1.208-3.045-3.082 0-1.874 1.16-3.283 2.892-3.283 1.562 0 2.543 1.157 2.543 2.906.009.206-.007.413-.047.616zm-1.246-.969c0-.943-.476-1.61-1.345-1.61-.78 0-1.398.68-1.486 1.61h2.831z" transform="translate(1 1)"/>
    </g>
</svg>
