<svg xmlns="http://www.w3.org/2000/svg" width="85" height="86" viewBox="0 0 85 86">
    <g fill="none" fill-rule="evenodd" transform="translate(.19 .85)">
        <circle cx="42.315" cy="42.315" r="42.315" fill="#FFC404"/>
        <path fill="#FFF" fill-rule="nonzero" d="M59.059 37.932l-7.795-6.745 7.795-6.744c.494-.425.668-1.12.442-1.727-.225-.608-.807-1.016-1.467-1.016h-24.85c-.86 0-1.563.703-1.563 1.562v29.625h-1.606c-3.385 0-6.145 2.76-6.145 6.146v3.654c0 .86.703 1.562 1.562 1.562h15.694c.86 0 1.562-.703 1.562-1.562 0-.86-.703-1.562-1.562-1.562H26.995v-2.092c0-1.667 1.354-3.021 3.02-3.021h6.337c1.094 0 2.11.599 2.647 1.554.417.755 1.372 1.024 2.127.607.755-.416 1.024-1.371.607-2.126-1.085-1.953-3.142-3.168-5.372-3.168h-1.606V24.825h19.087l-5.99 5.182c-.346.295-.537.729-.537 1.18 0 .452.2.886.538 1.18l5.989 5.183H39.867c-.86 0-1.562.703-1.562 1.562 0 .86.703 1.562 1.562 1.562h18.167c.651 0 1.233-.407 1.467-1.015.226-.608.052-1.302-.442-1.727z"/>
    </g>
</svg>
