<svg xmlns="http://www.w3.org/2000/svg" width="34" height="35" viewBox="0 0 34 35">
    <g fill="none" fill-rule="evenodd" transform="translate(.813 .819)">
        <circle cx="16.193" cy="16.193" r="16.193" fill="#FFC404"/>
        <path fill="#FFF" fill-rule="nonzero" d="M22.6 14.515l-2.983-2.58L22.6 9.352c.19-.162.256-.428.17-.66-.087-.233-.31-.39-.562-.39h-9.51c-.329 0-.598.27-.598.599v11.336h-.614c-1.295 0-2.352 1.056-2.352 2.352v1.398c0 .329.27.598.598.598h6.005c.33 0 .598-.269.598-.598 0-.329-.269-.598-.598-.598H10.33v-.8c0-.638.518-1.156 1.156-1.156h2.425c.418 0 .807.23 1.013.594.16.29.525.392.813.233.29-.16.392-.525.233-.814-.415-.747-1.202-1.212-2.056-1.212h-.615V9.5h7.305l-2.292 1.983c-.133.113-.206.279-.206.451 0 .173.076.34.206.452l2.292 1.983h-5.348c-.329 0-.598.27-.598.598 0 .329.269.598.598.598h6.952c.249 0 .472-.156.561-.389.087-.232.02-.498-.17-.66z"/>
    </g>
</svg>
