<?xml version="1.0" encoding="UTF-8"?>
<svg width="82px" height="26px" viewBox="0 0 82 26" version="1.1" xmlns="http://www.w3.org/2000/svg" xmlns:xlink="http://www.w3.org/1999/xlink">
    <!-- Generator: sketchtool 58 (101010) - https://sketch.com -->
    <title>F3656CF5-7458-46B7-BADD-9280F0193F06</title>
    <desc>Created with sketchtool.</desc>
    <defs>
        <polygon id="path-1" points="0.239701207 0.2614918 18.1544407 0.2614918 18.1544407 18.2263794 0.239701207 18.2263794"></polygon>
    </defs>
    <g id="Page-1" stroke="none" stroke-width="1" fill="none" fill-rule="evenodd">
        <g id="Flixxo--HOME---Usuario-NO-Registrado-" transform="translate(-122.000000, -21.000000)">
            <g id="Group" transform="translate(122.000000, 21.000000)">
                <path d="M11.2832041,1.01588145 C10.8953449,0.666531136 10.3931115,0.481020049 9.87737265,0.495756911 C8.57240991,0.474085055 7.28475102,0.806097888 6.14480782,1.45842075 C5.05424388,2.09383957 4.16372921,3.03786561 3.58004115,4.17780523 C2.95963519,5.41960257 2.64901017,6.80009979 2.67602104,8.19533388 L2.67602104,8.22090667 L1.87793419,8.22090667 C1.38667396,8.20313574 0.907653038,8.38041153 0.540474001,8.71632529 C0.180469728,9.05917405 -0.0166252264,9.54592394 0.00110065812,10.0500113 C-0.00565205979,10.5341606 0.190598805,10.9979383 0.540474001,11.3230161 C0.907230993,11.6597968 1.38625192,11.837506 1.87793419,11.8193016 L2.67602104,11.8193016 L2.67602104,23.1870569 C2.64099132,24.278885 3.47452993,25.1934373 4.538083,25.2289792 C4.56298365,25.2298461 4.58830634,25.2302795 4.61362904,25.2302795 C5.16777395,25.2580195 5.70883547,25.0521368 6.11231037,24.6607431 C6.48708621,24.268916 6.68840161,23.7357883 6.66856551,23.1870569 L6.66856551,11.8184347 L9.22278106,11.8184347 C9.71404128,11.8366391 10.1930622,11.6589299 10.5598192,11.3221492 C10.9101164,10.9975048 11.1072114,10.5337271 11.1004587,10.0491444 C11.1177625,9.54505706 10.9202455,9.05830718 10.5598192,8.71545842 C10.1930622,8.37954465 9.71404128,8.20226887 9.22278106,8.22003979 L6.66856551,8.22003979 L6.66856551,7.89019414 C6.61707603,6.92232906 6.93487582,5.9722349 7.55485973,5.24145992 C8.15289731,4.58523612 9.00162954,4.23155143 9.87610651,4.27489514 C10.3922674,4.28963201 10.8949228,4.10412092 11.2832041,3.7547706 C12.0196724,3.06950652 12.0753823,1.90096005 11.4081294,1.14461228 C11.3688792,1.09996825 11.3270968,1.05705798 11.2832041,1.01631489 L11.2832041,1.01588145 Z" id="Fill-1" fill="#FFFFFF"></path>
                <path d="M19.8501614,20.718992 L19.0665319,20.718992 C18.8951129,20.718992 18.6364261,20.6683592 18.3728416,20.2334365 C18.1070309,19.7383602 17.9792459,19.1844288 18.0032891,18.6266025 L18.0032891,2.045876 C18.0202083,0.93238722 17.1047866,0.0162365198 15.9591736,0 C14.8131154,-0.0162204016 13.870979,0.873099244 13.8540597,1.98702079 C13.8536145,2.00649494 13.8536145,2.02640185 13.8540597,2.045876 L13.8540597,18.6261697 C13.8384762,19.692055 14.0566458,20.7492851 14.4938754,21.7268876 C14.8865807,22.6192366 15.5295131,23.3852199 16.3500979,23.9378531 C17.1506467,24.4662518 18.098126,24.7449485 19.0660866,24.7358606 L19.128866,24.7358606 C19.7833748,24.7600951 20.4276429,24.5779036 20.9668335,24.2165499 C21.4708497,23.8798634 21.770499,23.3233354 21.7682728,22.7291573 C21.7860825,22.2081156 21.5995253,21.7009221 21.246892,21.3088425 C20.8924777,20.9232542 20.382228,20.708173 19.8501614,20.718992" id="Fill-3" fill="#FFFFFF"></path>
                <path d="M25.7265534,7.42375262 C25.2045485,7.40932803 24.6984253,7.61389493 24.321445,7.99199403 C23.9381956,8.38233217 23.7304803,8.92390995 23.7497054,9.48340919 L23.7497054,23.1330051 C23.7359135,23.6837621 23.9407032,24.2157235 24.3151759,24.6030019 C25.0712262,25.4221438 26.3191898,25.4453105 27.102824,24.6541436 C27.4965219,24.2563747 27.7146857,23.7056176 27.7046551,23.1330051 L27.7046551,9.48253497 C27.7510463,8.393697 26.9444254,7.47139747 25.9033413,7.42331551 C25.844412,7.42069285 25.7854827,7.42069285 25.7265534,7.42375262" id="Fill-5" fill="#FFFFFF"></path>
                <path d="M25.7336927,0.989949156 C25.0752467,0.983082656 24.4429499,1.24701377 23.9838381,1.71951484 C23.0214609,2.66666276 23.0090293,4.21591694 23.9551168,5.17894364 L23.9838381,5.20769711 C24.9427859,6.17501537 26.5027371,6.18102356 27.4689724,5.22100096 L27.4822613,5.20769711 C28.4446385,4.23909138 28.4403518,2.6731001 27.4732591,1.70964424 C27.010718,1.24915955 26.3857086,0.990378313 25.7336927,0.98952 L25.7336927,0.989949156 Z" id="Fill-7" fill="#FFFFFF"></path>
                <path d="M41.3103013,16.5111871 L45.7221153,10.7734942 C46.070474,10.3385683 46.2599706,9.79808635 46.259533,9.24052275 C46.2687234,8.76880555 46.0932311,8.31198007 45.7711306,7.96684251 C45.4253977,7.60068133 44.9378706,7.40227103 44.4345886,7.42285665 C43.8359018,7.40095706 43.2625979,7.66944605 42.8962961,8.1437912 L38.738749,13.6668682 L34.0866725,8.12539555 C33.7033029,7.66506613 33.1291237,7.40665095 32.530437,7.42460862 C32.0236538,7.40008108 31.5299998,7.58885555 31.1689497,7.94538091 C30.8464115,8.27518875 30.6687311,8.71975046 30.6752956,9.18095586 C30.6836107,9.73151159 30.8901752,10.2606057 31.2573522,10.6701281 L36.0809822,16.3530721 L31.5601967,21.9909029 C31.211838,22.3947314 31.0188403,22.9098098 31.0162145,23.4432839 C30.9860176,24.401172 31.7370019,25.2018211 32.6936754,25.2320425 C32.7418154,25.2333565 32.7899554,25.23276 32.8380954,25.2302905 C33.3995831,25.2359844 33.9365632,24.9999068 34.3120553,24.5820626 L38.6162107,19.1864413 L43.1221166,24.5474613 C43.4818538,25.0047247 44.0411533,25.258322 44.621897,25.2272246 C45.1203651,25.2434303 45.6048287,25.0607877 45.9685047,24.7195921 C46.3190516,24.3871563 46.5146751,23.9233229 46.5072353,23.4397799 C46.5102987,22.9185696 46.3111741,22.415755 45.9514369,22.0382061 L41.3103013,16.5111871 Z" id="Fill-9" fill="#FFFFFF"></path>
                <path d="M58.1342371,16.5109189 L62.5473484,10.7733952 C62.895775,10.3384822 63.0848708,9.79801621 63.0835576,9.24046907 C63.0927498,8.76920376 62.9185365,8.31239177 62.5976864,7.96682641 C62.2514485,7.60067604 61.7638264,7.4022716 61.2600086,7.42285661 C60.6603297,7.40051968 60.0869141,7.66900075 59.7201032,8.14376989 L55.5617461,13.6666839 L50.9083255,8.12537477 C50.5248812,7.66505894 49.9514656,7.40665139 49.3526622,7.42460852 C48.8457803,7.39964373 48.3520301,7.58841263 47.9909096,7.94536544 C47.6678709,8.27472558 47.4901559,8.71971215 47.4971594,9.18090393 C47.5054761,9.73144342 47.7116431,10.260084 48.0780163,10.6700322 L52.9025861,16.3528085 L48.3822329,21.990473 C48.0333686,22.3942895 47.8403333,22.9089148 47.837707,23.442811 C47.8092551,24.4024228 48.563012,25.2030483 49.5216228,25.2315169 C49.568459,25.23276 49.6148575,25.2323928 49.6612561,25.229765 C50.2228531,25.2350207 50.7590624,24.9989501 51.1346277,24.5815562 L55.4378708,19.1860941 L59.9433414,24.5500217 C60.3031487,25.0072717 60.8625572,25.2612995 61.4429763,25.230203 C61.9415414,25.2468462 62.4260995,25.0642089 62.7898463,24.7225854 C63.1404615,24.3901594 63.3356854,23.9263398 63.3291196,23.442811 C63.3321836,22.9216161 63.1330202,22.4188164 62.7732129,22.0412785 L58.1342371,16.5109189 Z" id="Fill-11" fill="#FFFFFF"></path>
                <g id="Group-15" transform="translate(63.329280, 6.926640)">
                    <mask id="mask-2" fill="white">
                        <use xlink:href="#path-1"></use>
                    </mask>
                    <g id="Clip-14"></g>
                    <path d="M9.21177034,14.4859379 C8.3143346,14.4994495 7.43041052,14.2697513 6.653708,13.8203796 C5.90707982,13.3788535 5.29643996,12.7407544 4.88716742,11.976256 C4.44651296,11.1394048 4.22422436,10.2049209 4.24078704,9.2595406 C4.2259678,8.30849408 4.44782054,7.36877992 4.88716742,6.5245191 C5.29338894,5.75479034 5.90490052,5.11189684 6.653708,4.66819136 C8.24372528,3.78034454 10.1798154,3.78034454 11.7698327,4.66819136 C12.5155891,5.10840996 13.1218704,5.7508676 13.5180671,6.52103222 C13.9491327,7.36877992 14.1666268,8.30849408 14.1518076,9.2595406 C14.169242,10.2049209 13.9517478,11.1394048 13.5189389,11.9801787 C13.1196911,12.745113 12.5138457,13.3827762 11.7698327,13.8203796 C10.9931302,14.2697513 10.1092061,14.4994495 9.2122062,14.4859379 L9.21177034,14.4859379 Z M17.0005885,4.61240128 C16.2491659,3.27169592 15.1420815,2.16504738 13.8022479,1.41318888 C12.3987787,0.635614638 10.816171,0.238982038 9.21177034,0.262518478 C7.59342216,0.238546178 5.99643112,0.634742918 4.5768351,1.41275302 C3.23046356,2.15894534 2.12119986,3.26908076 1.37631512,4.6154523 C-0.139170098,7.51522888 -0.139170098,10.9729063 1.37631512,13.8726828 C2.12163572,15.2199261 3.23046356,16.3296257 4.5768351,17.0766897 C7.47225308,18.6096093 10.9386477,18.6096093 13.8340656,17.0766897 C15.17172,16.3265746 16.2735741,15.2177468 17.0158436,13.875298 C18.5396102,10.9746497 18.533944,7.50912684 17.0005885,4.61370886 L17.0005885,4.61240128 Z" id="Fill-13" fill="#FFFFFF" mask="url(#mask-2)"></path>
                </g>
            </g>
        </g>
    </g>
</svg>