<?xml version="1.0" encoding="UTF-8"?>
<svg width="115px" height="28px" viewBox="0 0 115 28" version="1.1" xmlns="http://www.w3.org/2000/svg" xmlns:xlink="http://www.w3.org/1999/xlink">
    <!-- Generator: sketchtool 58 (101010) - https://sketch.com -->
    <title>1A852DB8-6191-4274-871D-8348B7E97E0A</title>
    <desc>Created with sketchtool.</desc>
    <defs>
        <polygon id="path-1" points="0.0119737966 0.0335164482 17.7228727 0.0335164482 17.7228727 17.7939928 0.0119737966 17.7939928"></polygon>
        <polygon id="path-3" points="0.000264080059 0.213622568 27.6669036 0.213622568 27.6669036 27.8804348 0.000264080059 27.8804348"></polygon>
    </defs>
    <g id="Page-1" stroke="none" stroke-width="1" fill="none" fill-rule="evenodd">
        <g id="Flixxo--HOME--Buscador-Activado" transform="translate(-1268.000000, -755.000000)">
            <g id="Group-14" transform="translate(56.000000, 690.000000)">
                <g id="LOGO-FLIXXO" transform="translate(1212.000000, 65.000000)">
                    <path d="M44.9048196,1.98258324 C44.5213735,1.63720796 44.0248548,1.45380769 43.5149842,1.46837687 C42.2248698,1.44695161 40.9518624,1.77518667 39.8248899,2.42008716 C38.7467348,3.04827594 37.8663527,3.9815605 37.2893061,5.10852946 C36.6759594,6.33619717 36.3688687,7.70098657 36.3955723,9.08034516 L36.3955723,9.10562697 L35.6065664,9.10562697 C35.1208959,9.08805825 34.6473254,9.26331692 34.2843243,9.59540854 C33.9284163,9.93435623 33.7335639,10.4155677 33.7510881,10.9139194 C33.7444123,11.3925598 33.9384301,11.8510605 34.2843243,12.1724395 C34.6469082,12.5053881 35.1204786,12.6810753 35.6065664,12.663078 L36.3955723,12.663078 L36.3955723,23.9014867 C36.3609411,24.9808916 37.1849954,25.8850378 38.236447,25.9201752 C38.2610643,25.9210323 38.2860989,25.9214608 38.3111334,25.9214608 C38.8589731,25.9488851 39.3938782,25.7453451 39.7927622,25.3584048 C40.1632737,24.971036 40.3622985,24.4439745 40.3426881,23.9014867 L40.3426881,12.662221 L42.8678408,12.662221 C43.3535113,12.6802182 43.8270817,12.5045311 44.1896656,12.1715824 C44.535977,11.850632 44.7308294,11.3921313 44.7241535,10.9130624 C44.7412604,10.4147107 44.5459909,9.93349922 44.1896656,9.59455153 C43.8270817,9.26245991 43.3535113,9.08720124 42.8678408,9.10476996 L40.3426881,9.10476996 L40.3426881,8.77867742 C40.2917845,7.82182507 40.6059682,6.88254143 41.2188977,6.16008149 C41.8101306,5.51132445 42.6492056,5.16166412 43.5137325,5.20451465 C44.0240203,5.21908383 44.5209563,5.03568356 44.9048196,4.69030828 C45.6329081,4.01284139 45.6879841,2.85759108 45.0283234,2.10984932 C44.9895198,2.06571327 44.9482128,2.02329125 44.9048196,1.98301175 L44.9048196,1.98258324 Z" id="Fill-1" fill="#FFFFFF"></path>
                    <path d="M53.3742988,21.4615044 L52.5995857,21.4615044 C52.4301172,21.4615044 52.1743738,21.4114477 51.9137885,20.9814737 C51.6510023,20.4920306 51.5246713,19.944402 51.5484409,19.3929229 L51.5484409,3.00085813 C51.5651676,1.90003904 50.6601619,0.994312644 49.5275841,0.97826087 C48.3945662,0.96222503 47.4631498,1.84142566 47.446423,2.94267259 C47.4459828,2.96192515 47.4459828,2.98160556 47.446423,3.00085813 L47.446423,19.392495 C47.4310168,20.4462523 47.646704,21.4914528 48.0789587,22.4579318 C48.4671956,23.3401273 49.1028125,24.097395 49.9140603,24.6437401 C50.7055002,25.1661264 51.6421988,25.4416521 52.5991455,25.4326675 L52.6612106,25.4326675 C53.3082721,25.4566263 53.9452095,25.2765078 54.478265,24.9192657 C54.9765464,24.5864102 55.2727861,24.0362146 55.2705852,23.4487973 C55.2881923,22.9336841 55.1037578,22.4322617 54.7551369,22.0446433 C54.4047553,21.6634425 53.9003114,21.4508085 53.3742988,21.4615044" id="Fill-3" fill="#FFFFFF"></path>
                    <path d="M59.183827,8.31754324 C58.6677617,8.30328278 58.1673973,8.50552205 57.7947064,8.87931899 C57.4158178,9.26521572 57.2104659,9.80063122 57.2294723,10.3537643 L57.2294723,23.8480499 C57.2158373,24.3925403 57.4182969,24.9184488 57.7885087,25.3013206 C58.5359564,26.1111419 59.7697202,26.1340451 60.5444379,25.3518804 C60.9336561,24.9586374 61.1493375,24.414147 61.1394212,23.8480499 L61.1394212,10.3529 C61.1852844,9.27645123 60.3878416,8.36464597 59.3586033,8.3171111 C59.3003445,8.31451829 59.2420858,8.31451829 59.183827,8.31754324" id="Fill-5" fill="#FFFFFF"></path>
                    <path d="M59.1908851,1.95694601 C58.5399311,1.95015764 57.9148288,2.21108565 57.460941,2.67821042 C56.5095141,3.61458133 56.4972239,5.14620752 57.4325465,6.09827654 L57.460941,6.12670285 C58.4089775,7.0830146 59.951179,7.08895442 60.9064201,6.13985531 L60.9195578,6.12670285 C61.8709847,5.16911827 61.8667468,3.62094543 60.9106581,2.66845214 C60.4533799,2.21320701 59.8354821,1.95737029 59.1908851,1.95652174 L59.1908851,1.95694601 Z" id="Fill-7" fill="#FFFFFF"></path>
                    <path d="M74.5902572,17.3015775 L78.9518719,11.6291702 C79.2962668,11.199193 79.4836073,10.6648609 79.4831746,10.1136415 C79.4922604,9.64729165 79.318765,9.1956641 79.0003295,8.85445365 C78.6585305,8.4924588 78.1765506,8.29630608 77.6789951,8.31665747 C77.0871204,8.29500706 76.5203398,8.56044108 76.158206,9.02938896 L72.0479649,14.4896223 L67.4488215,9.01120261 C67.069814,8.556111 66.5021681,8.30063616 65.9102934,8.3183895 C65.4092767,8.29414104 64.9212396,8.48076757 64.5642976,8.83323624 C64.2454295,9.15929142 64.0697707,9.59879473 64.0762606,10.0547524 C64.0844811,10.5990437 64.2886952,11.1221176 64.6516943,11.5269802 L69.4204393,17.1452616 L64.951093,22.7189431 C64.606698,23.1181766 64.4158963,23.6273943 64.4133004,24.1547982 C64.383447,25.1017872 65.1258864,25.8933261 66.0716745,25.9232037 C66.1192667,25.9245027 66.166859,25.923913 66.2144513,25.9214717 C66.7695501,25.9271008 67.3004202,25.6937094 67.6716399,25.2806195 L71.926821,19.9463916 L76.3814569,25.2464119 C76.737101,25.6984725 77.2900365,25.9491842 77.8641723,25.9184406 C78.3569686,25.9344619 78.8359198,25.7538975 79.1954578,25.4165841 C79.542016,25.0879309 79.7354136,24.6293752 79.7280585,24.1513342 C79.7310871,23.6360544 79.5342282,23.138961 79.1785841,22.7657079 L74.5902572,17.3015775 Z" id="Fill-9" fill="#FFFFFF"></path>
                    <path d="M91.2227639,17.3013123 L95.5856612,11.6290724 C95.9301232,11.1991079 96.1170674,10.6647916 96.1157692,10.1135884 C96.1248568,9.64768534 95.9526258,9.19607112 95.6354264,8.85443773 C95.2931281,8.49245356 94.8110543,8.29630664 94.3129692,8.31665743 C93.7201137,8.29457466 93.1532226,8.56000085 92.7905855,9.02936788 L88.6795436,14.4894401 L84.0790714,9.01118207 C83.6999901,8.55610389 83.1330991,8.30063659 82.541109,8.31838941 C82.0399947,8.29370867 81.5518625,8.48032969 81.194851,8.83322096 C80.875488,9.15883351 80.699795,9.59875686 80.7067189,10.054701 C80.714941,10.5989763 80.9187621,11.1216017 81.2809665,11.5268854 L86.0506405,17.145001 L81.5817217,22.718518 C81.2368269,23.1177398 81.045988,23.6265094 81.0433916,24.1543308 C81.0152634,25.1030238 81.7604438,25.8945394 82.7081472,25.9226841 C82.7544505,25.923913 82.800321,25.9235501 82.8461916,25.9209521 C83.4013986,25.926148 83.9315067,25.6927635 84.3027987,25.2801189 L88.5570779,19.9460483 L93.0112835,25.2489432 C93.3669968,25.7009904 93.9200401,25.9521278 94.493855,25.9213851 C94.9867473,25.9378389 95.4657919,25.7572798 95.8253998,25.4195434 C96.1720256,25.0908999 96.3650282,24.6323577 96.358537,24.1543308 C96.3615662,23.6390662 96.164669,23.1419875 95.8089557,22.7687455 L91.2227639,17.3013123 Z" id="Fill-11" fill="#FFFFFF"></path>
                    <g id="Group-15" transform="translate(96.583696, 8.051087)">
                        <mask id="mask-2" fill="white">
                            <use xlink:href="#path-1"></use>
                        </mask>
                        <g id="Clip-14"></g>
                        <path d="M8.88195536,14.0961114 C7.99473098,14.1094693 7.12086452,13.8823847 6.35299961,13.4381262 C5.61486685,13.0016238 5.01117508,12.3707853 4.60655939,11.6149856 C4.17091887,10.7876564 3.95115955,9.86380551 3.96753377,8.92918207 C3.95288315,7.98895691 4.17221157,7.05993517 4.60655939,6.22528067 C5.00815877,5.46431017 5.61271234,4.82873175 6.35299961,4.39007492 C7.92492508,3.51233036 9.83898564,3.51233036 11.4109111,4.39007492 C12.1481821,4.82528455 12.7475648,5.46043207 13.1392535,6.22183346 C13.5654142,7.05993517 13.7804336,7.98895691 13.765783,8.92918207 C13.783019,9.86380551 13.5679996,10.7876564 13.1401153,11.6188637 C12.7454103,12.3750943 12.1464585,13.0055019 11.4109111,13.4381262 C10.6430462,13.8823847 9.76917974,14.1094693 8.88238626,14.0961114 L8.88195536,14.0961114 Z M16.5821495,4.33491964 C15.8392768,3.00946933 14.7447892,1.91541266 13.4202007,1.17210908 C12.0327007,0.403382376 10.4681005,0.0112628106 8.88195536,0.0345314441 C7.28202135,0.0108319099 5.70320148,0.402520575 4.29975815,1.17167818 C2.96870613,1.90938005 1.87206405,3.00688393 1.13565489,4.33793595 C-0.362586568,7.20471778 -0.362586568,10.6230524 1.13565489,13.4898342 C1.87249495,14.8217481 2.96870613,15.918821 4.29975815,16.6573847 C7.16223098,18.1728622 10.5891836,18.1728622 13.4516564,16.6573847 C14.7740905,15.9158047 15.8634072,14.8195936 16.597231,13.4924196 C18.1036595,10.624776 18.0980578,7.19868517 16.5821495,4.33621234 L16.5821495,4.33491964 Z" id="Fill-13" fill="#FFFFFF" mask="url(#mask-2)"></path>
                    </g>
                    <g id="Group-18">
                        <mask id="mask-4" fill="white">
                            <use xlink:href="#path-3"></use>
                        </mask>
                        <g id="Clip-17"></g>
                        <path d="M27.6669036,13.9900161 C27.6980967,21.6301131 21.5305156,27.8491658 13.8904186,27.8805964 C6.25032166,27.9117895 0.0316979097,21.7437795 0.000264080059,14.1041115 C-0.0313547659,6.46401446 6.13665527,0.245390719 13.7763233,0.213622568 C13.7956252,0.213622568 13.814927,0.213622568 13.8342288,0.213622568 C21.4580265,0.198637375 27.6509145,6.36621848 27.6669036,13.9900161" id="Fill-16" fill="#FFC408" mask="url(#mask-4)"></path>
                    </g>
                    <path d="M19.1243644,13.203357 L10.9894114,8.89907405 C10.7340677,8.76423579 10.4274817,8.77389847 10.1808232,8.92454837 C9.93373044,9.07344143 9.7826087,9.34267872 9.7826087,9.63387664 L9.7826087,18.2468347 C9.7856485,18.7080079 10.1573733,19.0791425 10.6129098,19.076087 C10.7440557,19.0751896 10.8730303,19.0426878 10.9894114,18.9811981 L19.1243644,14.6769151 C19.5256187,14.4652147 19.6815173,13.9645124 19.472205,13.55868 C19.3944728,13.4080301 19.2733149,13.2854898 19.1243644,13.2068707 L19.1243644,13.203357 Z" id="Fill-19" fill="#FFFFFF"></path>
                </g>
            </g>
        </g>
    </g>
</svg>