<?xml version="1.0" encoding="UTF-8"?>
<svg width="23px" height="23px" viewBox="0 0 23 23" version="1.1" xmlns="http://www.w3.org/2000/svg" xmlns:xlink="http://www.w3.org/1999/xlink">
    <!-- Generator: sketchtool 58 (101010) - https://sketch.com -->
    <title>92E81E31-CDD8-473C-A186-CFB79CBDDA0E</title>
    <desc>Created with sketchtool.</desc>
    <g id="Page-1" stroke="none" stroke-width="1" fill="none" fill-rule="evenodd">
        <g id="Flixxo--HOME--Buscador-Activado" transform="translate(-212.000000, -693.000000)" fill="#FFFFFF">
            <g id="Group-14" transform="translate(56.000000, 690.000000)">
                <g id="Atoms/Social/Google-Dark" transform="translate(153.000000, -0.000000)">
                    <path d="M24.8691577,12.4011286 L14.5794522,12.4011286 C14.5794522,13.4943825 14.5794522,15.6808903 14.573986,16.7741441 L20.5354993,16.7741441 C20.3070093,17.867398 19.4969082,19.3979534 18.3522714,20.1686974 C18.3511781,20.1676042 18.3500849,20.1752569 18.3489916,20.1741637 C16.8271822,21.2007291 14.8177816,21.4335921 13.3265833,21.1263878 C10.9892065,20.6530089 9.13942098,18.9212947 8.38835557,16.721668 C8.39272858,16.7183882 8.39600834,16.6877771 8.3992881,16.6855906 C7.92918894,15.3212097 7.92918894,13.4943825 8.3992881,12.4011286 L8.39819485,12.4011286 C9.0038575,10.3928213 10.909399,8.55724803 13.2511488,8.05653776 C15.1326387,7.64875406 17.256831,8.09042863 18.8190908,9.58381342 C19.026809,9.37500193 21.6954417,6.71511526 21.8944139,6.49974424 C16.5571485,1.56042325 8.01118298,3.29760365 4.8134154,9.67455349 L4.81232215,9.67455349 L4.80685588,9.68657928 L4.80685588,9.68657928 C3.22491753,12.8187516 3.29051276,16.5095767 4.81778842,19.4919733 C4.81450866,19.495253 4.81013564,19.4974395 4.80685588,19.5007193 C6.19091528,22.2447865 8.7097722,24.3493002 11.7457382,25.1506553 C14.9686506,26.0143259 19.0716324,25.4239688 21.8200726,22.88434 C21.8211659,22.8854333 21.8222591,22.8865265 21.8233524,22.8876198 C24.1530764,20.7448422 25.6005445,17.0944675 24.8691577,12.4011286" id="Fill-1"></path>
                </g>
            </g>
        </g>
    </g>
</svg>