<svg xmlns="http://www.w3.org/2000/svg" width="29" height="30" viewBox="0 0 29 30">
    <path fill="#FFF" fill-rule="evenodd" d="M17.778 9.494c-.264-.403-.624-.742-1.063-.974-.288-.153-.646-.044-.8.245-.152.288-.042.645.247.797.5.266.837.76.896 1.284.023.537-.024 1.078-.147 1.639-.061.368-.108.782-.155 1.217-.149 1.347-.316 2.875-1.02 3.65-.233.213-.527.321-.83.341.39-.967.522-2.105.636-3.152.045-.41.088-.8.139-1.116.14-.629.197-1.273.166-1.961-.128-1.048-.81-1.956-1.783-2.37-.3-.13-.648.011-.776.31-.129.3.012.647.312.775.585.249.996.795 1.068 1.382.025.54-.023 1.08-.147 1.64-.06.366-.106.78-.154 1.212-.147 1.349-.316 2.878-1.021 3.653-.29.266-.673.385-1.052.348.331-.924.45-1.982.558-2.959.045-.41.088-.802.139-1.119.14-.627.197-1.272.165-1.959-.12-1.024-.782-1.923-1.725-2.346-.3-.132-.648 0-.782.297s0 .646.298.78c.566.254.962.793 1.03 1.365.025.54-.022 1.08-.146 1.638-.061.368-.107.782-.155 1.215-.148 1.348-.315 2.876-1.087 3.716-.16.143-.363.22-.582.204-.215-.013-.412-.107-.53-.233-.166-.356.189-2.021.34-2.732.105-.492.197-.928.226-1.189.123-.752.037-1.523-.249-2.238-.34-.813-1.097-1.375-1.975-1.468-.332-.041-.617.2-.65.525-.035.325.201.615.526.65.449.047.835.334 1.005.739.203.508.264 1.063.172 1.63-.03.26-.117.658-.211 1.106-.398 1.868-.62 3.136-.09 3.729.353.395.84.628 1.37.658.038.003.077.004.114.004.489 0 .954-.177 1.32-.504.036-.031.07-.065.119-.115.09-.097.165-.205.241-.313.225.064.453.108.683.108.633 0 1.263-.24 1.766-.705.023-.025.04-.054.061-.08.186.043.374.07.562.07.633 0 1.262-.24 1.766-.705.775-.85 1.063-2.083 1.232-3.305.043-.01.086-.016.128-.037 1.26-.646 2.664-.883 4.065-.686.126.017.257-.006.37-.069.608-.338 1.341-.347 2.021.006 1.367.526 1.882 1.035 1.909 1.335.018.207-.197.44-.375.583-3.594-.309-6.333 1.375-9.842 4.399-1.222 1.203-2.281 2.56-3.127 4.002-.73 1.063-1.479 2.245-1.494 2.27-.587 1.043-.992 1.13-1.356 1.13l-6.888.003c-.346.038-.67-.154-.836-.452-.825-3.5-1.23-7.095-1.196-10.679.188-7.173 4.956-7.597 5.157-7.61.15-.01.29-.076.394-.186C8.557 6.949 10.12 6.988 10.97 7.01c.375.01.928.024 1.111-.442.206-.122.821-.295 1.313-.375 2.395-.085 3.095.124 4.493.54.71.21 1.592.474 2.955.777 1.98.346 3.893 1.143 5.592 2.34.086.048.16.11.223.186.255.318.204.783-.086 1.015-.426.303-1.66.03-2.41-.266l-4.865-1.433c-.08-.024-.162-.032-.243-.02l-1.274.161zm5.994 2.406c.389.155 2.384.891 3.511.094.825-.662.958-1.871.294-2.696-.16-.199-.355-.361-.52-.446-1.78-1.261-3.86-2.127-5.985-2.497-1.296-.29-2.156-.546-2.848-.751-1.473-.439-2.287-.678-4.943-.584-1.366.214-1.916.547-2.146.816L11 5.83c-.935-.024-2.853-.074-4.98 2.096-1.14.19-5.826 1.413-6.017 8.735-.034 3.537.357 7.071 1.134 10.523-.017.081-.019.167.002.254.03.123.073.24.124.353.023.091.071.167.128.235.37.592 1.02.973 1.701.973.061 0 .122-.003.184-.009h6.829c.989 0 1.703-.518 2.371-1.706.002-.003.737-1.162 1.477-2.242.816-1.387 1.812-2.664 2.931-3.768 3.304-2.846 5.859-4.426 9.134-4.07.128.011.253-.013.363-.077.122-.072 1.183-.727 1.097-1.796-.075-.913-.945-1.68-2.599-2.312-.91-.478-1.983-.496-2.905-.058-1.375-.16-2.741.056-4.01.589.035-.306.068-.6.109-.842.139-.63.196-1.275.164-1.953-.005-.044-.023-.084-.03-.127l.872-.11 4.694 1.38z"/>
</svg>
