<svg xmlns="http://www.w3.org/2000/svg" width="52" height="52" viewBox="0 0 52 52">
    <g fill="none">
        <circle cx="25.826" cy="25.826" r="25.826" stroke="#979797" stroke-width="1.5"/>
        <g fill="#FFF">
            <path d="M1.238 10.706C-1.244 15 .334 21.514 3.078 25.465c1.37 1.975 2.757 3.747 4.656 3.747.036 0 .072 0 .109-.002.892-.035 1.537-.31 2.16-.574.7-.297 1.425-.605 2.56-.605 1.08 0 1.77.298 2.437.585.657.284 1.334.577 2.334.558 2.14-.04 3.453-1.952 4.612-3.64 1.21-1.762 1.816-3.473 2.02-4.127l.01-.026c.038-.116-.017-.243-.129-.294l-.017-.007c-.377-.154-3.682-1.616-3.717-5.6-.032-3.237 2.48-4.95 2.983-5.261l.024-.015c.054-.035.092-.09.105-.154.013-.064 0-.13-.037-.183-1.734-2.53-4.39-2.91-5.46-2.956-.156-.016-.316-.023-.477-.023-1.256 0-2.46.473-3.427.853-.668.262-1.244.489-1.642.489-.447 0-1.027-.23-1.698-.495-.898-.355-1.916-.758-2.993-.758h-.076c-2.505.037-4.872 1.466-6.177 3.73z" transform="translate(14 10)"/>
            <path d="M17.767 0c-1.537.062-3.38.993-4.48 2.263-.937 1.068-1.851 2.848-1.61 4.642.015.112.107.2.222.208.104.008.21.012.315.012 1.502 0 3.123-.818 4.23-2.136 1.164-1.39 1.753-3.176 1.575-4.775-.014-.126-.126-.219-.252-.214z" transform="translate(14 10)"/>
        </g>
    </g>
</svg>
