<svg xmlns="http://www.w3.org/2000/svg" width="29" height="24" viewBox="0 0 29 24">
    <path fill="#FFF" fill-rule="evenodd" d="M21.646 11.075c.13.018.263-.006.379-.069.622-.339 1.37-.347 2.066.006 1.394.527 1.92 1.037 1.947 1.337.02.206-.197.439-.38.583-3.473-.369-5-.454-8.89 2.795-1.343 1.057-2.53 2.29-3.54 3.673-.746 1.067-1.51 2.25-1.527 2.276-.6 1.045-1.03 1.133-1.386 1.133l-7.03.002c-.355.032-.682-.153-.852-.446-.844-3.51-1.258-7.115-1.224-10.712.19-7.19 5.063-7.613 5.267-7.627.17-.011.328-.092.435-.222 1.032-1.27 2.651-1.961 4.3-1.87.105.04.219.059.335.033.046-.009.093-.015.138-.024.045-.005.089-.01.131-.024 1.525-.302 3.084-.435 4.672-.39.804-.021 1.586-.086 2.342-.15.588-.05 1.178-.099 1.797-.13 1.34-.095 2.702-.089 4.033.021.642.065 1.284.18 1.828.318.24.1.49.18.74.237.04.01.078.014.118.015.105.004.207.043.287.11.194.164.215.452.026.669-.326.414-1.61.519-2.434.458l-5.184.062c-.014 0-.026.008-.04.009l-.535.008c-1.95.028-2.673.043-2.982.343-.092.054-.173.123-.227.22-.156.29-.042.647.252.8.087.045.161.104.238.161l.003.003c.373.28.625.686.674 1.123.025.54-.024 1.082-.15 1.642-.062.368-.11.782-.158 1.216-.08.724-.17 1.497-.344 2.18-.119.13-.17.304-.143.478-.138.394-.314.744-.556 1.004-.236.214-.536.322-.846.343.398-.971.532-2.112.651-3.162.044-.41.088-.801.14-1.118.144-.63.201-1.276.169-1.963-.129-1.052-.826-1.963-1.821-2.377-.307-.125-.662.01-.793.312-.13.3.012.647.319.776.599.249 1.019.797 1.092 1.384.024.541-.025 1.083-.15 1.643-.062.369-.11.781-.158 1.215-.151 1.352-.322 2.885-1.044 3.663-.294.266-.688.386-1.074.348.338-.925.46-1.986.57-2.963.046-.412.09-.805.143-1.124.142-.63.2-1.275.167-1.962-.123-1.026-.798-1.926-1.762-2.348-.3-.133-.661-.001-.798.296-.136.299 0 .649.304.782.578.254.982.794 1.052 1.366.025.54-.023 1.082-.15 1.643-.062.368-.108.783-.157 1.218-.152 1.35-.324 2.882-1.112 3.724-.338.294-.858.266-1.136-.032-.17-.356.193-2.028.35-2.741.105-.491.199-.926.23-1.187.125-.753.038-1.525-.255-2.244-.347-.815-1.12-1.379-2.017-1.471-.338-.042-.63.2-.664.526-.035.324.206.616.537.65.458.047.853.334 1.026.742.207.51.27 1.066.177 1.633-.032.262-.12.657-.216 1.105-.408 1.875-.635 3.147-.094 3.741.402.44.96.663 1.518.663.48 0 .96-.164 1.342-.498.04-.035.078-.07.127-.12.091-.098.169-.207.248-.315.23.063.461.108.697.108.646 0 1.29-.24 1.804-.708.022-.025.04-.053.061-.079.19.043.383.07.575.07.646 0 1.29-.24 1.804-.706.398-.426.667-.95.862-1.518 1.21-.543 2.534-.748 3.856-.566zm-1.083-6.753c.011 0 .019-.006.031-.007l4.588-.058c.425.032 2.598.151 3.412-.892.603-.683.525-1.72-.173-2.31-.27-.228-.611-.367-.967-.393-.169-.041-.34-.098-.574-.19-.686-.18-1.393-.306-2.108-.378-1.407-.117-2.83-.124-4.22-.025-.62.03-1.224.08-1.825.131-.751.063-1.5.126-2.238.148-1.665-.051-3.334.095-4.964.42-2.035-.194-4.07.6-5.402 2.115-1.208.202-5.929 1.462-6.12 8.749-.036 3.545.364 7.088 1.157 10.546-.017.083-.02.17.002.257.033.132.081.256.139.376.024.076.063.143.111.202.377.6 1.045.987 1.745.987.062 0 .125-.003.186-.009h6.972c.998 0 1.75-.535 2.424-1.71.001-.003.751-1.165 1.478-2.203.938-1.285 2.052-2.44 3.323-3.44 3.587-2.998 4.66-2.884 8.213-2.506.129.008.26-.014.37-.079.124-.07 1.209-.727 1.12-1.798-.076-.916-.964-1.683-2.653-2.318-.932-.48-2.027-.498-2.968-.057-1.186-.137-2.373-.014-3.495.349.08-.482.138-.968.19-1.436.044-.411.088-.803.14-1.12.145-.629.202-1.276.17-1.958-.055-.495-.242-.955-.525-1.35.397-.012.88-.02 1.38-.027l1.08-.016z"/>
</svg>
