<svg xmlns="http://www.w3.org/2000/svg" width="29" height="30" viewBox="0 0 29 30">
    <path fill="#FFF" fill-rule="evenodd" d="M26.812 21.254c-3.531-1.137-5.1-1.561-9.948.793-.029.014-.047.038-.073.055-.02.013-.042.018-.06.033-1.085.914-1.979 1.988-2.617 3.132-.797 1.082-1.61 2.283-1.629 2.309-.64 1.06-1.08 1.149-1.478 1.149l-7.502.003c-.384.035-.726-.15-.906-.443-.902-3.565-1.346-7.228-1.309-10.88.204-7.294 5.403-7.725 5.62-7.74.183-.01.35-.092.465-.224 1.176-1.375 3.066-2.097 4.944-1.88.016.003.03-.003.048-.002.01 0 .02.008.03.008.024 0 .046-.012.07-.015.06-.006.117-.016.172-.036.011-.005.025-.003.038-.01 1.235-.554 2.026-.801 2.66-1.001.38-.118.688-.216 1.042-.373 1.286-.743 2.49-1.615 3.552-2.57.635-.507 1.341-.935 2.123-1.284.608-.302 1.246-.561 1.808-.747.272-.048.542-.118.802-.211.039-.013.076-.031.112-.052.094-.055.21-.08.32-.065.132.014.25.076.33.173.082.097.118.217.1.375-.036.528-1.111 1.328-1.911 1.754l-3.09 2.258-.008.004c-1.446 1.065-1.613 1.254-1.827 1.742-.099.226-.265.604-1.273 1.747-.014.016-.017.034-.028.05-.014.018-.033.03-.043.049-.01.019-.01.04-.019.06-.016.037-.028.072-.035.11-.01.04-.013.078-.012.117 0 .037.004.073.013.11.008.038.018.073.034.109.016.036.034.068.058.1.023.033.05.063.078.09.018.016.025.036.043.05.02.015.047.022.068.035.015.009.024.022.04.03.546.27.913.773.977 1.306.026.549-.026 1.098-.16 1.667-.066.375-.117.798-.17 1.24-.16 1.37-.343 2.922-1.111 3.709-.253.217-.573.328-.904.348.426-.985.569-2.142.694-3.207.049-.417.094-.815.15-1.136.154-.638.215-1.294.18-1.993-.137-1.066-.88-1.99-1.94-2.412-.322-.128-.705.01-.847.316-.139.305.013.657.34.788.638.254 1.085.809 1.164 1.406.026.549-.026 1.098-.162 1.666-.065.374-.116.794-.167 1.234-.16 1.372-.343 2.927-1.113 3.716-.314.27-.731.39-1.143.354.36-.94.489-2.015.606-3.007.048-.417.095-.814.152-1.136.151-.638.213-1.293.179-1.991-.131-1.041-.852-1.955-1.88-2.385-.322-.134-.706-.002-.851.3-.147.304-.002.659.323.794.616.258 1.05.806 1.123 1.387.027.549-.025 1.099-.16 1.667-.066.374-.116.793-.167 1.233-.162 1.372-.345 2.928-1.186 3.783-.362.3-.916.27-1.213-.031-.181-.362.207-2.057.372-2.781.114-.5.213-.941.246-1.206.133-.764.04-1.547-.27-2.276-.372-.828-1.197-1.4-2.154-1.494-.35-.042-.672.204-.708.534-.039.33.219.625.573.66.488.048.908.34 1.094.753.221.518.289 1.082.189 1.657-.033.265-.127.667-.231 1.123-.434 1.9-.676 3.19-.099 3.795.427.444 1.02.67 1.614.67.517 0 1.036-.17 1.454-.516l.119-.11c.099-.1.183-.212.267-.323.244.064.491.108.74.108.689 0 1.376-.243 1.925-.717.024-.025.043-.054.066-.08.204.044.408.07.614.07.689 0 1.376-.242 1.924-.716.192-.196.349-.417.49-.65.021-.002.041.003.062-.002 1.492-.353 3.044-.27 4.484.244.131.047.274.053.41.017.73-.196 1.51-.038 2.145.465 1.321.83 1.745 1.45 1.698 1.754-.03.209-.314.39-.54.493m-.378-3.2c-.85-.68-1.987-.943-3.069-.717-1.372-.456-2.823-.562-4.253-.354.23-.8.336-1.664.43-2.473.05-.42.097-.818.154-1.144.153-.638.213-1.294.18-1.985-.085-.73-.459-1.39-1.031-1.867.753-.907.923-1.29 1.038-1.552.09-.206.13-.292 1.42-1.246l.01-.004L24.328 4.5c.398-.207 2.393-1.312 2.48-2.64.058-.44-.072-.876-.366-1.225-.294-.35-.717-.571-1.19-.625-.382-.04-.766.03-1.097.205-.174.059-.36.106-.622.159-.715.228-1.418.512-2.061.833-.858.382-1.66.868-2.408 1.468-1.024.918-2.156 1.738-3.294 2.4-.247.107-.515.19-.843.292-.607.19-1.439.455-2.655.992-2.156-.187-4.322.617-5.738 2.145C5.246 8.712.207 9.99.002 17.384c-.036 3.596.39 7.19 1.235 10.7-.018.084-.022.173.001.262.037.137.09.264.153.387.025.075.065.14.114.198.401.61 1.115 1.003 1.862 1.003.067 0 .133-.003.2-.01h7.44c1.078 0 1.857-.526 2.584-1.733.002-.003.803-1.182 1.625-2.307.598-1.06 1.38-2.004 2.329-2.813 4.387-2.117 5.489-1.764 9.073-.61.129.042.27.044.404.005.147-.043 1.437-.45 1.605-1.53.145-.923-.592-1.88-2.193-2.881"/>
</svg>
