<?xml version="1.0" encoding="UTF-8"?>
<svg width="23px" height="23px" viewBox="0 0 23 23" version="1.1" xmlns="http://www.w3.org/2000/svg" xmlns:xlink="http://www.w3.org/1999/xlink">
    <!-- Generator: sketchtool 58 (101010) - https://sketch.com -->
    <title>DDFED376-9B86-4D8B-A9AA-D3E3DA0AF380</title>
    <desc>Created with sketchtool.</desc>
    <g id="Page-1" stroke="none" stroke-width="1" fill="none" fill-rule="evenodd">
        <g id="Flixxo--HOME--Buscador-Activado" transform="translate(-59.000000, -693.000000)" fill="#FFFFFF">
            <g id="Group-14" transform="translate(56.000000, 690.000000)">
                <g id="Atoms/Social/Instagram-Dark" transform="translate(-0.000000, -0.000000)">
                    <path d="M10.051393,3.78043603 C8.27513149,3.86186611 6.73556012,4.29615986 5.49239424,5.53715427 C4.24488542,6.78466309 3.81602034,8.33400607 3.73567599,10.096153 C3.68464648,11.1960019 3.39366966,19.5051272 4.23945675,21.6841962 C4.81055304,23.1542805 5.93645961,24.28453 7.41522985,24.8599693 C8.10684266,25.1281457 8.89508583,25.3116348 10.051393,25.36375 C19.718772,25.8023867 23.303867,25.5635252 24.8152092,21.6841962 C25.0833856,20.9936691 25.2668747,20.2043402 25.31899,19.0480331 C25.7597982,9.33071024 25.2473315,7.22438552 23.5622717,5.53715427 C22.2257327,4.20061524 20.6535893,3.29076981 10.051393,3.78043603 M10.1404232,23.4094281 C9.08183214,23.3616558 8.50639292,23.1857668 8.12421441,23.0359355 C7.15899653,22.6602714 6.43589743,21.9371723 6.06349053,20.9762973 C5.41747857,19.3205524 5.63245398,11.4565782 5.6899979,10.1840975 C5.74645609,8.93767439 5.99834647,7.79873901 6.87561986,6.91929416 C7.96135425,5.83355976 9.36412309,5.30154991 18.9153285,5.7336722 C20.1617516,5.79013039 21.300687,6.04202077 22.1801319,6.91929416 C23.2658663,8.00502855 23.8043905,9.42191193 23.3657538,18.9590028 C23.3179815,20.0186796 23.1410068,20.5930331 22.9922612,20.9762973 C22.0096716,23.5006298 19.7491726,23.851322 10.1404232,23.4094281 M19.0206448,8.77589997 C19.0206448,9.49465614 19.6036841,10.0787812 20.323526,10.0787812 C21.043368,10.0787812 21.6264073,9.49465614 21.6264073,8.77589997 C21.6264073,8.05605807 21.043368,7.4730187 20.323526,7.4730187 C19.6036841,7.4730187 19.0206448,8.05605807 19.0206448,8.77589997 M8.95262975,14.5715502 C8.95262975,17.6506929 11.4487331,20.1467963 14.5278759,20.1467963 C17.6059329,20.1467963 20.1020362,17.6506929 20.1020362,14.5715502 C20.1020362,11.4934932 17.6059329,8.99738978 14.5278759,8.99738978 C11.4487331,8.99738978 8.95262975,11.4934932 8.95262975,14.5715502 M10.9091231,14.5715502 C10.9091231,12.5737989 12.5290388,10.9527974 14.5278759,10.9527974 C16.5256271,10.9527974 18.1466286,12.5737989 18.1466286,14.5715502 C18.1466286,16.5703872 16.5256271,18.1913886 14.5278759,18.1913886 C12.5290388,18.1913886 10.9091231,16.5703872 10.9091231,14.5715502" id="Fill-1"></path>
                </g>
            </g>
        </g>
    </g>
</svg>