<?xml version="1.0" encoding="UTF-8"?>
<svg width="254px" height="62px" viewBox="0 0 254 62" version="1.1" xmlns="http://www.w3.org/2000/svg" xmlns:xlink="http://www.w3.org/1999/xlink">
    <!-- Generator: sketchtool 58 (101010) - https://sketch.com -->
    <title>793270CF-0B01-419E-82C7-EC25A1190543</title>
    <desc>Created with sketchtool.</desc>
    <defs>
        <polygon id="path-1" points="0.0266084369 0.074480996 39.3841615 0.074480996 39.3841615 39.5422063 0.0266084369 39.5422063"></polygon>
        <polygon id="path-3" points="0.000586844576 0.474716818 61.4820079 0.474716818 61.4820079 61.9565217 0.000586844576 61.9565217"></polygon>
    </defs>
    <g id="Page-1" stroke="none" stroke-width="1" fill="none" fill-rule="evenodd">
        <g id="Flixxo--HOME---Pop-Up-de-Aviso" transform="translate(-593.000000, -138.000000)">
            <g id="Group-9" transform="translate(492.000000, 83.000000)">
                <g id="LOGO-FLIXXO" transform="translate(101.000000, 55.000000)">
                    <path d="M99.7884879,4.40574054 C98.9363857,3.63823992 97.8330106,3.23068376 96.6999649,3.26305972 C93.833044,3.21544802 91.0041386,3.94485927 88.4997553,5.37797147 C86.1038551,6.77394654 84.1474505,8.84791223 82.8651247,11.3522877 C81.5021319,14.0804381 80.8197083,17.1133035 80.8790495,20.1785448 L80.8790495,20.2347266 L79.125703,20.2347266 C78.0464353,20.195685 76.9940565,20.5851487 76.1873873,21.3231301 C75.3964806,22.0763472 74.9634754,23.145706 75.0024181,24.2531542 C74.9875828,25.3167995 75.4187336,26.3356899 76.1873873,27.0498655 C76.9931293,27.7897513 78.0455081,28.1801672 79.125703,28.1401734 L80.8790495,28.1401734 L80.8790495,53.114415 C80.8020914,55.5130925 82.6333232,57.5223062 84.9698822,57.6003894 C85.0245874,57.6022939 85.0802197,57.6032461 85.1358521,57.6032461 C86.3532735,57.6641891 87.5419515,57.2118779 88.4283605,56.3520106 C89.2517193,55.4911911 89.6939966,54.3199432 89.6504179,53.114415 L89.6504179,28.1382689 L95.2618684,28.1382689 C96.3411362,28.1782628 97.3935149,27.7878468 98.1992569,27.047961 C98.9688379,26.3347377 99.401843,25.3158473 99.3870078,24.2512497 C99.4250232,23.1438015 98.9910908,22.0744427 98.1992569,21.3212256 C97.3935149,20.5832442 96.3411362,20.1937805 95.2618684,20.2328221 L89.6504179,20.2328221 L89.6504179,19.508172 C89.5372988,17.3818335 90.2354849,15.2945365 91.5975504,13.68907 C92.9114013,12.2473877 94.7760125,11.4703647 96.6971832,11.5655881 C97.8311561,11.5979641 98.9354584,11.1904079 99.7884879,10.4229073 C101.406462,8.91742531 101.528854,6.3502024 100.062941,4.68855404 C99.9767107,4.59047394 99.8849174,4.49620277 99.7884879,4.40669277 L99.7884879,4.40574054 Z" id="Fill-1" fill="#FFFFFF"></path>
                    <path d="M118.609553,47.692232 L116.887968,47.692232 C116.511372,47.692232 115.943053,47.5809949 115.363975,46.6254971 C114.780005,45.5378458 114.499269,44.3208933 114.552091,43.0953841 L114.552091,6.66857361 C114.589261,4.22230897 112.578137,2.20958365 110.061298,2.17391304 C107.54348,2.13827784 105.473666,4.09205703 105.436496,6.53927241 C105.435517,6.5820559 105.435517,6.62579013 105.436496,6.66857361 L105.436496,43.0944334 C105.40226,45.4361162 105.881564,47.7587841 106.84213,49.9065151 C107.704879,51.8669495 109.117361,53.5497666 110.920134,54.7638668 C112.678889,55.9247254 114.760442,56.5370046 116.88699,56.517039 L117.024912,56.517039 C118.462827,56.5702807 119.878243,56.1700174 121.062811,55.376146 C122.170103,54.6364671 122.828414,53.4138102 122.823523,52.1084385 C122.86265,50.9637425 122.452795,49.8494704 121.678082,48.9880962 C120.899456,48.1409832 119.77847,47.6684634 118.609553,47.692232" id="Fill-3" fill="#FFFFFF"></path>
                    <path d="M131.519616,18.4834294 C130.372804,18.4517395 129.260883,18.9011601 128.432681,19.73182 C127.590706,20.5893683 127.134369,21.7791805 127.176605,23.008365 L127.176605,52.9956665 C127.146305,54.205645 127.596215,55.3743307 128.418908,56.2251569 C130.079903,58.0247599 132.8216,58.0756558 134.543195,56.337512 C135.408125,55.4636386 135.887417,54.2536601 135.86538,52.9956665 L135.86538,23.0064444 C135.967299,20.6143361 134.195204,18.5881022 131.908007,18.4824691 C131.778543,18.4767073 131.649079,18.4767073 131.519616,18.4834294" id="Fill-5" fill="#FFFFFF"></path>
                    <path d="M131.5353,4.34876892 C130.088736,4.33368365 128.69962,4.91352366 127.69098,5.95157871 C125.576698,8.03240297 125.549386,11.4360167 127.627881,13.5517256 L127.69098,13.6148952 C129.797728,15.7400324 133.224842,15.753232 135.3476,13.6441229 L135.376795,13.6148952 C137.491077,11.4869295 137.481659,8.0465454 135.357018,5.92989364 C134.340844,4.91823781 132.967738,4.34971175 131.5353,4.34782609 L131.5353,4.34876892 Z" id="Fill-7" fill="#FFFFFF"></path>
                    <path d="M165.756127,38.4479501 L175.448604,25.8426004 C176.213926,24.8870956 176.630238,23.6996909 176.629277,22.4747588 C176.649468,21.4384259 176.263922,20.4348091 175.556288,19.6765637 C174.796734,18.8721307 173.725668,18.4362357 172.619989,18.481461 C171.304712,18.433349 170.0452,19.0232024 169.240458,20.0653088 L160.106589,32.1991607 L149.88627,20.0248947 C149.044031,19.01358 147.782596,18.4458581 146.467319,18.48531 C145.353948,18.4314245 144.269421,18.8461502 143.476217,19.6294139 C142.767621,20.3539809 142.377268,21.330655 142.39169,22.3438941 C142.409958,23.5534304 142.863767,24.7158168 143.670432,25.6155116 L154.267643,38.1005813 L144.335762,50.4865401 C143.57044,51.3737258 143.146436,52.5053206 143.140667,53.6773294 C143.074327,55.7817492 144.724192,57.5407248 146.825943,57.6071193 C146.931704,57.6100061 147.037464,57.6086957 147.143225,57.6032704 C148.376778,57.6157795 149.556489,57.0971319 150.381422,56.1791545 L159.83738,44.3253146 L169.736571,56.1031375 C170.526891,57.1077166 171.755637,57.6648538 173.031494,57.5965347 C174.126597,57.6321376 175.190933,57.2308833 175.989906,56.481298 C176.760036,55.7509576 177.189808,54.7319449 177.173463,53.6696315 C177.180193,52.5245654 176.742729,51.4199134 175.952409,50.5904621 L165.756127,38.4479501 Z" id="Fill-9" fill="#FFFFFF"></path>
                    <path d="M202.717253,38.4473607 L212.41258,25.842383 C213.178052,24.8869065 213.593483,23.6995368 213.590598,22.4746409 C213.610793,21.4393007 213.228057,20.4357136 212.52317,19.6765283 C211.762507,18.872119 210.691232,18.436237 209.584376,18.4814609 C208.266919,18.4323881 207.007161,19.0222241 206.201301,20.065262 L197.065652,32.1987558 L186.842381,20.0248491 C185.999978,19.0135642 184.74022,18.4458591 183.424687,18.4853098 C182.311099,18.4304637 181.226361,18.8451771 180.433002,19.6293799 C179.723307,20.3529634 179.332878,21.3305708 179.348264,22.3437801 C179.366536,23.5532806 179.819471,24.7146705 180.62437,25.615301 L191.223646,38.1000022 L181.292715,50.4855955 C180.526282,51.372755 180.102196,52.5033542 180.096426,53.6762907 C180.033919,55.7844972 181.689875,57.5434208 183.795883,57.6059646 C183.898779,57.6086957 184.000713,57.607889 184.102648,57.6021158 C185.336441,57.6136623 186.514459,57.09503 187.339553,56.178042 L196.793506,44.3245519 L206.691741,56.1087627 C207.482215,57.1133121 208.7112,57.671395 209.986344,57.603078 C211.081661,57.639642 212.146204,57.2383996 212.945333,56.4878742 C213.715612,55.7575553 214.144507,54.7385727 214.130082,53.6762907 C214.136814,52.5312583 213.699264,51.4266389 212.90879,50.5972121 L202.717253,38.4473607 Z" id="Fill-11" fill="#FFFFFF"></path>
                    <g id="Group-15" transform="translate(214.630435, 17.891304)">
                        <mask id="mask-2" fill="white">
                            <use xlink:href="#path-1"></use>
                        </mask>
                        <g id="Clip-14"></g>
                        <path d="M19.7376786,31.324692 C17.7660688,31.3543763 15.8241434,30.8497438 14.1177769,29.8625026 C12.4774819,28.8924974 11.1359446,27.4906341 10.2367987,25.8110792 C9.26870859,23.9725699 8.78035455,21.9195678 8.81674172,19.8426268 C8.78418478,17.7532376 9.27158126,15.6887448 10.2367987,13.833957 C11.1292417,12.1429115 12.4726941,10.730515 14.1177769,9.75572205 C17.6109446,7.80517857 21.8644125,7.80517857 25.3575802,9.75572205 C26.9959601,10.7228546 28.3279218,12.1342935 29.1983411,13.8262966 C30.1453649,15.6887448 30.6231858,17.7532376 30.5906289,19.8426268 C30.6289312,21.9195678 30.1511102,23.9725699 29.2002562,25.8196972 C28.3231341,27.5002096 26.9921299,28.9011154 25.3575802,29.8625026 C23.6512138,30.8497438 21.7092883,31.3543763 19.7386361,31.324692 L19.7376786,31.324692 Z M36.849221,9.63315476 C35.1983929,6.68770963 32.7661982,4.25647257 29.8226682,2.60468685 C26.7393349,0.89640528 23.2624457,0.0250284679 19.7376786,0.0767365424 C16.1822697,0.024070911 12.6737811,0.894490166 9.55501812,2.6037293 C6.59712474,4.24306677 4.16014234,6.68196429 2.52367754,9.63985766 C-0.80574793,16.010484 -0.80574793,23.6067831 2.52367754,29.9774094 C4.1610999,32.9372179 6.59712474,35.3751579 9.55501812,37.0164105 C15.9160688,40.3841382 23.5315192,40.3841382 29.8925699,37.0164105 C32.8313121,35.368455 35.252016,32.9324301 36.8827355,29.9831548 C40.2303546,23.6106134 40.2179063,15.9970782 36.849221,9.63602743 L36.849221,9.63315476 Z" id="Fill-13" fill="#FFFFFF" mask="url(#mask-2)"></path>
                    </g>
                    <g id="Group-18">
                        <mask id="mask-4" fill="white">
                            <use xlink:href="#path-3"></use>
                        </mask>
                        <g id="Clip-17"></g>
                        <path d="M61.4820079,31.0889247 C61.5513261,48.0669181 47.8455903,61.8870351 30.867597,61.9568808 C13.8896037,62.026199 0.0704397993,48.31951 0.000586844576,31.3424699 C-0.0696772575,14.3644766 13.6370117,0.545312709 30.6140518,0.474716818 C30.6569448,0.474716818 30.6998378,0.474716818 30.7427308,0.474716818 C47.6845033,0.441416388 61.4464766,14.1471522 61.4820079,31.0889247" id="Fill-16" fill="#FFC408" mask="url(#mask-4)"></path>
                    </g>
                    <path d="M42.4985876,29.3407934 L24.4209142,19.7757201 C23.8534839,19.4760795 23.1721815,19.4975522 22.6240515,19.8323297 C22.0749565,20.1632032 21.7391304,20.7615083 21.7391304,21.4086148 L21.7391304,40.5485216 C21.7458856,41.5733508 22.5719406,42.3980944 23.584244,42.3913043 C23.8756793,42.3893101 24.1622895,42.3170841 24.4209142,42.1804402 L42.4985876,32.6153669 C43.3902639,32.1449215 43.7367051,31.0322497 43.2715667,30.1303999 C43.0988286,29.7956224 42.8295887,29.5233106 42.4985876,29.3486016 L42.4985876,29.3407934 Z" id="Fill-19" fill="#FFFFFF"></path>
                </g>
            </g>
        </g>
    </g>
</svg>