<?xml version="1.0" encoding="UTF-8"?>
<svg width="85px" height="86px" viewBox="0 0 85 86" version="1.1" xmlns="http://www.w3.org/2000/svg" xmlns:xlink="http://www.w3.org/1999/xlink">
    <!-- Generator: Sketch 58 (84663) - https://sketch.com -->
    <title>Group 2</title>
    <desc>Created with Sketch.</desc>
    <g id="Page-1" stroke="none" stroke-width="1" fill="none" fill-rule="evenodd">
        <g id="05-Flixxo-Onboarding-Copy" transform="translate(-65.000000, -929.000000)">
            <g id="Group-8" transform="translate(50.000000, 918.478261)">
                <g id="Group-2" transform="translate(15.217391, 10.869565)">
                    <circle id="Oval" fill="#FFC404" cx="42.3913043" cy="42.3913043" r="42.3913043"></circle>
                    <g id="envelope" transform="translate(19.565217, 23.913043)" fill="#FFFFFF" fill-rule="nonzero">
                        <path d="M41.5076087,0.0733695652 L5.78152174,0.0733695652 C2.5923913,0.0733695652 0,2.66576087 0,5.8548913 L0,30.2722826 C0,33.461413 2.5923913,36.0538043 5.78152174,36.0538043 L41.4978261,36.0538043 C44.6869565,36.0538043 47.2793754,33.461413 47.2793754,30.2722826 L47.2793754,5.86467391 C47.2891304,2.67554348 44.6967391,0.0733695652 41.5076087,0.0733695652 Z M44.6478261,30.2722826 C44.6478261,32.0038043 43.2391304,33.4125 41.5076087,33.4125 L5.78152174,33.4125 C4.05,33.4125 2.64130435,32.0038043 2.64130435,30.2722826 L2.64130435,5.86467391 C2.64130435,4.13315217 4.05,2.72445652 5.78152174,2.72445652 L41.4978261,2.72445652 C43.2293478,2.72445652 44.6380435,4.13315217 44.6380435,5.86467391 L44.6380435,30.2722826 L44.6478261,30.2722826 Z" id="Shape"></path>
                        <path d="M29.8173913,17.7603261 L41.3804348,7.39076087 C41.9184783,6.90163043 41.9673913,6.0701087 41.4782609,5.52228261 C40.9891304,4.98423913 40.1576087,4.93532609 39.6097826,5.42445652 L23.6641304,19.736413 L20.5532609,16.9581522 C20.5434783,16.9483696 20.5336957,16.938587 20.5336957,16.9288043 C20.4652174,16.8603261 20.3967391,16.8016304 20.3184783,16.7429348 L7.65978261,5.41467391 C7.11195652,4.92554348 6.28043478,4.97445652 5.79130435,5.52228261 C5.30217391,6.0701087 5.35108696,6.90163043 5.89891304,7.39076087 L17.598913,17.8483696 L5.94782609,28.7559783 C5.41956522,29.2548913 5.39021739,30.086413 5.88913043,30.6244565 C6.15326087,30.8983696 6.50543478,31.0451087 6.8576087,31.0451087 C7.18043478,31.0451087 7.50326087,30.9277174 7.7576087,30.6929348 L19.5847826,19.6288043 L22.7934783,22.4951087 C23.0478261,22.7201087 23.3608696,22.8277174 23.673913,22.8277174 C23.9869565,22.8277174 24.3097826,22.7103261 24.5543478,22.4853261 L27.851087,19.5309783 L39.6097826,30.7027174 C39.8641304,30.9472826 40.1967391,31.0646739 40.5195652,31.0646739 C40.8717391,31.0646739 41.2141304,30.9277174 41.4782609,30.6538043 C41.9771739,30.1255435 41.9576087,29.2842391 41.4293478,28.7853261 L29.8173913,17.7603261 Z" id="Path"></path>
                    </g>
                </g>
            </g>
        </g>
    </g>
</svg>