<?xml version="1.0" encoding="UTF-8"?>
<svg width="20px" height="20px" viewBox="0 0 20 20" version="1.1" xmlns="http://www.w3.org/2000/svg" xmlns:xlink="http://www.w3.org/1999/xlink">
    <!-- Generator: Sketch 58 (84663) - https://sketch.com -->
    <title>Icon / mas info</title>
    <desc>Created with Sketch.</desc>
    <g id="Symbols" stroke="none" stroke-width="1" fill="none" fill-rule="evenodd">
        <g id="CTA---MAS-INFO" transform="translate(-17.000000, -12.000000)" fill="#FFFFFF">
            <g id="CTA---VER-AHORA-Copy-2">
                <g id="CTA---VER-AHORA">
                    <g id="Group-3" transform="translate(17.000000, 12.000000)">
                        <g id="Icon-/-mas-info">
                            <g id="warning">
                                <path d="M9.84615385,0 C4.40373077,0 0,4.40411538 0,9.84615385 C0,15.2885769 4.40411538,19.6923077 9.84615385,19.6923077 C15.2885769,19.6923077 19.6923077,15.2881923 19.6923077,9.84615385 C19.6923077,4.40373077 15.2881923,0 9.84615385,0 Z M9.84615385,18.1538462 C5.25411538,18.1538462 1.53846154,14.4378846 1.53846154,9.84615385 C1.53846154,5.25411538 5.25442308,1.53846154 9.84615385,1.53846154 C14.4381923,1.53846154 18.1538462,5.25442308 18.1538462,9.84615385 C18.1538462,14.4381923 14.4378846,18.1538462 9.84615385,18.1538462 Z" id="Shape" fill-rule="nonzero"></path>
                                <path d="M9.84615385,4.95680769 C9.42130769,4.95680769 9.07692308,5.30119231 9.07692308,5.72603846 L9.07692308,10.6796154 C9.07692308,11.1044615 9.42130769,11.4488462 9.84615385,11.4488462 C10.271,11.4488462 10.6153846,11.1044615 10.6153846,10.6796154 L10.6153846,5.72603846 C10.6153846,5.30119231 10.271,4.95680769 9.84615385,4.95680769 Z" id="Path" fill-rule="nonzero"></path>
                                <circle id="Oval" fill-rule="nonzero" cx="9.84615385" cy="13.4292308" r="1.03846154"></circle>
                            </g>
                        </g>
                    </g>
                </g>
            </g>
        </g>
    </g>
</svg>