<svg xmlns="http://www.w3.org/2000/svg" xmlns:xlink="http://www.w3.org/1999/xlink" width="546" height="100" viewBox="0 0 546 100">
    <defs>
        <path id="prefix__a" d="M0.323 0.167L40.483 0.167 40.483 14.6 0.323 14.6z"/>
        <path id="prefix__c" d="M.05.68c.757.067 1.504.17 2.235.327C2.848.89 3.42.801 3.997.732 3.263.643 2.516.59 1.757.59 1.181.59.614.63.048.68"/>
        <path id="prefix__e" d="M.123.85C.685.9 1.25.944 1.82.944c.763 0 1.513-.058 2.254-.15C3.5.725 2.93.634 2.37.511 1.634.673.884.778.123.85"/>
        <path id="prefix__g" d="M0.004 0.167L40.162 0.167 40.162 14.6 0.004 14.6z"/>
        <path id="prefix__i" d="M.932.849c.566.057 1.129.09 1.694.09.768 0 1.515-.055 2.26-.146C4.308.725 3.743.634 3.18.509 2.447.668 1.689.781.932.85"/>
        <path id="prefix__k" d="M.857.685c.756.067 1.513.169 2.236.326C3.657.888 4.234.798 4.81.731 4.076.638 3.33.593 2.562.593c-.565 0-1.141.034-1.705.09"/>
        <path id="prefix__m" d="M0.604 0.519L484.771 0.519 484.771 100.1 0.604 100.1z"/>
        <path id="prefix__o" d="M.472 1.069c.597.041 1.179.071 1.733.071.764 0 1.48-.045 2.151-.127-.652-.06-1.322-.14-2.015-.246-.577.14-1.198.242-1.87.302"/>
        <path id="prefix__q" d="M0 100.1L545.871 100.1 545.871 0.519 0 0.519z"/>
    </defs>
    <g fill="none" fill-rule="evenodd">
        <g>
            <path fill="#FFC404" d="M13.747 79.933h-3.388c-2.202-2.936-4.078-6.145-5.557-9.578-.485-1.118-.926-2.27-1.321-3.445-.735-2.089-1.322-4.257-1.763-6.493-.159-.792-.294-1.605-.406-2.418-.374-2.507-.565-5.104-.565-7.759 0-.858.023-1.717.067-2.563.102-2.317.374-4.587.769-6.789h3.389c-.542 3.004-.837 6.122-.837 9.352 0 5.93.949 11.52 2.722 16.67.395 1.175.836 2.327 1.322 3.445 1.491 3.433 3.354 6.642 5.568 9.578M25.04 79.935h-3.385c1.537 2.042 3.233 3.958 5.089 5.731h3.393c-1.857-1.773-3.559-3.688-5.096-5.731M38.245 7.693c-11.667 6.29-20.037 16.637-23.414 29.502h-3.388c3.366-12.865 11.723-23.2 23.369-29.502h3.433z" transform="translate(0 -1) translate(24.7 .782)"/>
            <g transform="translate(0 -1) translate(24.7 .782) translate(3.9 85.5)">
                <mask id="prefix__b" fill="#fff">
                    <use xlink:href="#prefix__a"/>
                </mask>
                <path fill="#FFC404" d="M.323.167C9.787 9.217 23.208 14.6 38.793 14.6c.568 0 1.127-.022 1.69-.038C25.625 14.186 12.834 8.879 3.717.167H.323z" mask="url(#prefix__b)"/>
            </g>
            <path fill="#FFC404" d="M55.606.968c-.561-.014-1.12-.035-1.688-.035-10.56 0-20.13 2.42-28.147 6.757h3.44C36.786 3.603 45.737 1.214 55.606.968" transform="translate(0 -1) translate(24.7 .782)"/>
        </g>
        <g transform="translate(0 -1) translate(89.7 27.782)">
            <mask id="prefix__d" fill="#fff">
                <use xlink:href="#prefix__c"/>
            </mask>
            <path d="M.05.68c.757.067 1.504.17 2.235.327C2.848.89 3.42.801 3.997.732 3.263.643 2.516.59 1.757.59 1.181.59.614.63.048.68" mask="url(#prefix__d)"/>
        </g>
        <g transform="translate(0 -1) translate(80.6 73.282)">
            <mask id="prefix__f" fill="#fff">
                <use xlink:href="#prefix__e"/>
            </mask>
            <path d="M.123.85C.685.9 1.25.944 1.82.944c.763 0 1.513-.058 2.254-.15C3.5.725 2.93.634 2.37.511 1.634.673.884.778.123.85" mask="url(#prefix__f)"/>
        </g>
        <g>
            <path fill="#FFC404" d="M82.345 36.698c.113.158.215.327.316.496h-3.376c-.802-1.344-1.729-2.563-2.78-3.648-.734-.79-1.535-1.513-2.393-2.156-2.168-1.65-4.642-2.802-7.319-3.379.565-.123 1.14-.213 1.716-.28.374.043.735.1 1.096.168.362.056.723.136 1.073.226.294.068.576.147.86.225.337.103.665.204.992.328.17.057.34.125.498.192.247.09.497.191.733.305.27.113.532.238.79.373.102.045.215.102.318.158.282.147.553.305.824.463.372.215.733.453 1.096.711.237.159.473.328.7.498.248.192.496.384.734.586.26.215.508.441.757.679.44.395.858.824 1.265 1.287.204.215.384.43.564.655.136.159.261.317.396.486.124.159.259.327.372.509.113.145.226.305.34.462.146.215.293.43.428.656M77.116 50.376c0 12.344-7.658 21.685-17.632 22.916-.574-.068-1.14-.159-1.704-.282 7.013-1.547 12.66-7.196 14.897-15.011.407-1.389.7-2.858.87-4.382.124-1.061.181-2.135.181-3.241 0-3.457-.61-6.642-1.695-9.488h3.378c1.084 2.846 1.705 6.031 1.705 9.488M37.754 7.693C26.1 13.983 17.717 24.33 14.34 37.195h-3.388c3.366-12.865 11.724-23.2 23.369-29.502h3.433z" transform="translate(0 -1) translate(149.5 .782)"/>
            <g transform="translate(0 -1) translate(149.5 .782) translate(2.6 85.5)">
                <mask id="prefix__h" fill="#fff">
                    <use xlink:href="#prefix__g"/>
                </mask>
                <path fill="#FFC404" d="M.004.167C9.468 9.217 22.889 14.6 38.474 14.6c.567 0 1.126-.022 1.688-.038C25.306 14.186 12.515 8.879 3.397.167H.004z" mask="url(#prefix__h)"/>
            </g>
            <path fill="#FFC404" d="M24.55 79.935h-3.385c1.537 2.042 3.234 3.958 5.089 5.731h3.393c-1.857-1.773-3.558-3.688-5.096-5.731M55.116.968c-.561-.014-1.12-.035-1.688-.035-10.56 0-20.13 2.42-28.147 6.757h3.44C36.296 3.603 45.247 1.214 55.116.968M4.483 40.887H1.097C.55 43.893.253 47.012.253 50.241c0 11.397 3.5 21.559 9.619 29.694h3.384c-6.12-8.132-9.614-18.297-9.614-29.694 0-3.23.295-6.35.841-9.354" transform="translate(0 -1) translate(149.5 .782)"/>
        </g>
        <g transform="translate(0 -1) translate(204.1 73.282)">
            <mask id="prefix__j" fill="#fff">
                <use xlink:href="#prefix__i"/>
            </mask>
            <path d="M.932.849c.566.057 1.129.09 1.694.09.768 0 1.515-.055 2.26-.146C4.308.725 3.743.634 3.18.509 2.447.668 1.689.781.932.85" mask="url(#prefix__j)"/>
        </g>
        <g transform="translate(0 -1) translate(213.2 27.782)">
            <mask id="prefix__l" fill="#fff">
                <use xlink:href="#prefix__k"/>
            </mask>
            <path d="M.857.685c.756.067 1.513.169 2.236.326C3.657.888 4.234.798 4.81.731 4.076.638 3.33.593 2.562.593c-.565 0-1.141.034-1.705.09" mask="url(#prefix__l)"/>
        </g>
        <g transform="translate(0 -1) translate(61.1 .782)">
            <mask id="prefix__n" fill="#fff">
                <use xlink:href="#prefix__m"/>
            </mask>
            <path fill="#FFC404" d="M217.799 79.933L221.187 79.933 221.187 40.888 217.799 40.888zM217.798 7.691L221.186 7.691 221.186 1.899 217.798 1.899zM229.093 85.666L232.48 85.666 232.48 79.934 229.093 79.934zM226.836 37.194L230.224 37.194 230.224 7.692 226.836 7.692zM205.443 98.719L208.831 98.719 208.831 85.666 205.443 85.666z" mask="url(#prefix__n)"/>
            <path fill="#6432D8" d="M5.121 50.378c0-3.455.66-6.646 1.815-9.49h-4.51C1.27 43.732.604 46.92.604 50.378.604 62.95 9.3 72.405 19.623 73.35c.761-.07 1.511-.177 2.245-.338C12.573 70.992 5.12 62.018 5.12 50.378M30.885 28.007c-.73-.158-1.478-.26-2.236-.327-7.565.663-14.136 5.7-17.186 13.207h4.508c2.74-6.748 8.32-11.502 14.914-12.88M80.232 79.935h-4.506c-1.543 2.045-3.258 3.956-5.12 5.731h4.53c1.856-1.773 3.556-3.69 5.096-5.731M53.509 7.69C45.505 3.359 35.959.933 25.425.933c-.762 0-1.516.022-2.267.047 9.63.321 18.37 2.701 25.793 6.712h4.558zM82.27 40.887h4.516C84.13 26.358 75.304 14.597 62.544 7.69h-4.557c12.777 6.902 21.624 18.658 24.283 33.197M10.804 100.052c.75.026 1.504.048 2.267.048 15.554 0 28.956-5.396 38.415-14.433h-4.528c-9.001 8.59-21.562 13.89-36.154 14.385M77.75 40.887h-4.517c.55 3.007.848 6.127.848 9.354 0 11.368-3.506 21.546-9.651 29.694h4.507c6.145-8.15 9.662-18.324 9.662-29.694 0-3.227-.3-6.347-.85-9.354M177.819 7.69c-8.005-4.332-17.55-6.758-28.084-6.758-.762 0-1.516.022-2.268.047 9.63.321 18.37 2.701 25.794 6.712h4.558zM202.06 40.887h-4.517c.552 3.007.848 6.127.848 9.354 0 11.368-3.506 21.546-9.651 29.694h4.507c6.145-8.15 9.662-18.324 9.662-29.694 0-3.227-.3-6.347-.85-9.354M206.58 40.887h4.516c-2.657-14.529-11.482-26.29-24.241-33.197h-4.558c12.776 6.902 21.624 18.658 24.283 33.197M204.542 79.935h-4.506c-1.542 2.045-3.258 3.956-5.12 5.731h4.53c1.856-1.773 3.556-3.69 5.096-5.731M135.113 100.052c.752.026 1.505.048 2.268.048 15.554 0 28.956-5.396 38.416-14.433h-4.53c-9 8.59-21.561 13.89-36.154 14.385M240.874 98.719L245.392 98.719 245.392 85.666 240.874 85.666zM264.524 85.666L269.041 85.666 269.041 79.934 264.524 79.934zM253.228 79.934L257.747 79.934 257.747 73.581 253.228 73.581zM295.859 7.69c-6.392-3.793-14.707-5.79-24.716-5.79h-4.517c10.007 0 18.323 1.997 24.715 5.79h4.518zM266.625 73.581h4.52c23.551 0 37.767-11.883 39.466-32.693h-4.519c-1.698 20.81-15.913 32.693-39.467 32.693M315.301 36.567c0 1.48-.058 2.92-.173 4.32h4.52c.114-1.4.172-2.84.172-4.32 0-13.3-5.261-23.143-14.925-28.876h-4.518c9.664 5.733 14.924 15.576 14.924 28.876M262.265 40.888L266.782 40.888 266.782 26.208 262.265 26.208zM253.228 49.274L257.747 49.274 257.747 40.888 253.228 40.888zM422.899 11.982l-10.7 22.42c1.262.629 2.476 1.262 3.616 1.889l11.603-24.31c-2.469-1.56-5.2-2.994-8.114-4.29h-4.51c2.911 1.294 5.639 2.73 8.105 4.29M410.27 7.69C400.304 3.256 388.119.518 376.255.518c-.811 0-1.61.015-2.403.04 11.19.301 22.531 2.963 31.907 7.134h4.51zM473.502 85.598c0 .024-.003.046-.003.07h4.518c0-.024.004-.046.004-.07 0-2.058-.36-3.962-1.027-5.663h-4.533c.67 1.702 1.04 3.601 1.04 5.663M437.903 99.66c.727.097 1.469.165 2.242.165 8.402 0 14.191-5.771 14.222-14.159h-4.517c-.029 7.604-4.797 13.04-11.947 13.994M461.166 79.935h4.533c-2.019-5.147-6.867-8.426-13.2-8.426-.772 0-1.515.067-2.241.166 5.204.692 9.135 3.762 10.908 8.26M463.451 7.691L467.969 7.691 467.969 1.899 463.451 1.899zM472.486 27.313L470.391 40.887 474.908 40.887 477.005 27.313 477.005 7.691 472.486 7.691zM465.875 40.888L462.442 63.081 457.923 63.081 461.356 40.888z" mask="url(#prefix__n)"/>
            <path fill="#6432D8" d="M32.597 27.732c-.735-.089-1.482-.143-2.24-.143-.575 0-1.143.041-1.708.09.758.068 1.506.17 2.236.327.563-.117 1.135-.207 1.712-.274M19.623 73.35c.563.052 1.127.093 1.698.093.763 0 1.513-.057 2.253-.148-.574-.07-1.144-.162-1.706-.283-.733.161-1.485.268-2.245.338M147.885 73.293c-.745.09-1.49.146-2.258.146-.566 0-1.13-.033-1.695-.09.757-.068 1.514-.181 2.247-.339.566.124 1.13.215 1.706.283M156.91 27.73c-.577.067-1.152.158-1.717.282-.722-.157-1.48-.26-2.237-.328.566-.056 1.141-.09 1.706-.09.768 0 1.514.046 2.247.136M370.971 75.169c.597.042 1.18.07 1.733.07.765 0 1.481-.044 2.152-.126-.652-.061-1.322-.142-2.015-.246-.576.14-1.198.242-1.87.302M362.486 99.642c.703.02 1.408.044 2.106.044 14.845 0 28.34-4.416 35.457-14.02h-4.521c-6.73 9.077-19.16 13.52-33.042 13.976M417.692 68.605c0 4.235-.745 8.008-2.079 11.328h-4.529c1.344-3.32 2.09-7.093 2.09-11.328 0-7.127-2.066-12.492-5.365-16.614-.78-.971-1.615-1.876-2.519-2.722-4.178-3.886-9.577-6.45-15.1-8.381h4.517c5.523 1.931 10.922 4.495 15.102 8.38.903.847 1.738 1.752 2.518 2.723 3.298 4.122 5.365 9.487 5.365 16.614M419.177 85.667h4.521c1.289-1.738 2.366-3.648 3.206-5.732h-4.52c-.84 2.084-1.918 3.994-3.207 5.732M390.878 37.195h-4.517c-8.064-2.113-14.289-3.942-14.289-8.223 0-2.462 1.694-3.614 4.394-3.92.487-.055.995-.09 1.547-.09.769 0 1.616.069 2.486.158-.463.08-.881.17-1.266.306-1.659.564-2.642 1.67-2.642 3.546 0 4.281 6.223 6.11 14.287 8.223M472.486 10.243L483.818 10.243 483.818 7.691 472.486 7.691zM419.306 8.966L427.418 8.966 427.418 7.691 419.306 7.691zM310.61 16.461L330.812 16.461 330.812 14.169 310.61 14.169zM206.584 40.888L219.492 40.888 219.492 37.194 206.584 37.194z" mask="url(#prefix__n)"/>
            <path fill="#6432D8" d="M414.605 70.06L423.361 70.06 423.361 65.757 414.605 65.757zM463.451 54.757L470.288 54.757 470.288 49.274 463.451 49.274zM477.004 68.19L481.287 68.19 481.287 63.907 477.004 63.907zM482.167 21.355L484.771 21.355 484.771 18.753 482.167 18.753zM266.782 40.886L272.765 40.886 272.765 37.194 266.782 37.194zM199.729 66.915L205.443 66.915 205.443 63.907 199.729 63.907zM1.845 55.808L28.649 55.808 28.649 50.797 1.845 50.797zM4.289 61.512L16.883 61.512 16.883 58.716 4.289 58.716z" mask="url(#prefix__n)"/>
            <path fill="#FFC404" d="M62.544 9.879L78.599 9.879 78.599 7.691 62.544 7.691zM335.95 32.009c0 3.352.494 6.288 1.374 8.879h3.39c-.88-2.591-1.376-5.527-1.376-8.88 0-10.484 4.798-18.85 13.194-24.317h-3.39c-8.394 5.468-13.192 13.835-13.192 24.318M369.884.547c-.512-.01-1.024-.03-1.535-.03-11.51 0-21.156 2.555-28.243 7.174h3.39C350.2 3.326 359.194.807 369.885.547M377.05 70.267c0 2.485-1.578 3.963-4.209 4.6.693.105 1.364.186 2.015.245 3.45-.423 5.584-1.955 5.584-4.845 0-11.328-40.725-5.72-48.763-29.38h-3.388c8.038 23.66 48.762 18.052 48.762 29.38M335.244 84.218l2.117-4.283h-3.39l-2.115 4.283c.65.496 1.326.975 2.006 1.449h3.386c-.68-.474-1.354-.954-2.004-1.45M310.212 85.667c12.747 8.907 30.476 14.019 46.474 14.019.681 0 1.361-.01 2.037-.029-15.64-.275-32.735-5.332-45.126-13.99h-3.385zM332.44 60.184l-9.762 19.75h3.389l8.824-17.855c-.853-.622-1.68-1.251-2.452-1.895" mask="url(#prefix__n)"/>
        </g>
        <g transform="translate(0 -1) translate(431.6 74.882)">
            <mask id="prefix__p" fill="#fff">
                <use xlink:href="#prefix__o"/>
            </mask>
            <path d="M.472 1.069c.597.041 1.179.071 1.733.071.764 0 1.48-.045 2.151-.127-.652-.06-1.322-.14-2.015-.246-.577.14-1.198.242-1.87.302" mask="url(#prefix__p)"/>
        </g>
        <g transform="translate(0 -1) translate(0 .782)">
            <path fill="#FFC404" d="M500.523 63.082L497.134 63.082 494.346 45.078 493.701 40.888 497.089 40.888z"/>
            <mask id="prefix__r" fill="#fff">
                <use xlink:href="#prefix__q"/>
            </mask>
            <path fill="#FFC404" d="M491.605 7.691L494.993 7.691 494.993 1.899 491.605 1.899zM505.549 37.195L502.162 37.195 500.637 27.312 500.637 7.692 504.024 7.692 504.024 27.312zM507.4 71.598c-.556-.054-1.124-.088-1.707-.088-6.228 0-11.05 3.279-13.063 8.425h3.4c1.83-4.667 5.964-7.8 11.37-8.337M482.642 85.667h-3.388c.031 8.387 5.82 14.158 14.084 14.158.584 0 1.15-.035 1.708-.09-7.356-.73-12.374-6.263-12.404-14.068M502.903 85.667h3.388c0-.024-.003-.046-.003-.07 0-2.06.37-3.96 1.036-5.662h-3.4c-.665 1.7-1.024 3.605-1.024 5.663 0 .023.003.045.003.069" mask="url(#prefix__r)"/>
            <path fill="#6432D8" d="M0 47.676L26.283 47.676 26.283 40.888 0 40.888z" mask="url(#prefix__r)"/>
            <path fill="#FFC404" d="M31.187 23.457L34.84 23.457 34.84 19.804 31.187 19.804zM149.753 4.311L184.154 4.311 174.781 7.691 149.753 7.691zM253.02 7.691L278.897 7.691 278.897 4.311 253.02 4.311zM383.778 40.886L398.46 40.886 398.46 38.095 383.778 38.095zM211.696 57.999L225.125 57.999 225.125 53.617 211.696 53.617zM280.592 29.712L289.627 29.712 289.627 24.289 280.592 24.289z" mask="url(#prefix__r)"/>
            <path fill="#6432D8" d="M9.888 7.691L46.355 7.691 46.355 6.001 9.888 6.001z" mask="url(#prefix__r)"/>
            <path fill="#FFC404" d="M24.235 82.801L41.45 82.801 41.45 79.934 24.235 79.934zM18.257 81.368L19.69 81.368 19.69 79.934 18.257 79.934zM158.915 19.468L160.349 19.468 160.349 18.035 158.915 18.035zM275.258 58.716L276.691 58.716 276.691 57.283 275.258 57.283zM373.981 81.368L375.415 81.368 375.415 79.934 373.981 79.934zM474.272 41.603L475.705 41.603 475.705 40.17 474.272 40.17zM483.999 45.079L497.089 45.079 497.089 40.888 483.999 40.888zM498.317 18.751L502.9 18.751 502.9 14.169 498.317 14.169zM480.908 3.169L491.605 3.169 491.605 1.898 480.908 1.898zM465.037 92.677L482.642 92.677 482.642 90.206 465.037 90.206zM273.144 79.934L278.898 79.934 278.898 76.758 273.144 76.758zM146.179 72.033L155.497 72.033 155.497 68.686 146.179 68.686zM204.615 63.907L207.009 63.907 207.009 61.512 204.615 61.512zM211.696 33.547L226.616 33.547 226.616 31.389 211.696 31.389zM17.3 60.411L28.122 60.411 28.122 57.999 17.3 57.999z" mask="url(#prefix__r)"/>
            <path fill="#FFF" d="M54.837 85.667c-1.857-1.773-3.559-3.688-5.096-5.732h87.084c-1.542 2.045-3.256 3.956-5.118 5.732h-23.65c-9 8.59-21.561 13.89-36.154 14.384-.746.026-1.494.05-2.251.05-.571 0-1.134-.022-1.7-.038-14.627-.371-27.253-5.522-36.341-13.997l-.424-.4zM119.09 7.692c.588.316 1.164.644 1.73.983.643.373 1.275.757 1.886 1.164.214.135.417.282.631.418.487.338.971.666 1.446 1.017.035.022.068.044.103.078.598.44 1.197.905 1.783 1.378.564.452 1.118.915 1.66 1.401.52.451 1.029.915 1.527 1.389.022.033.055.057.078.079 1.322 1.288 2.575 2.643 3.727 4.078.327.395.655.8.96 1.208.034.057.08.101.102.147.305.395.6.79.87 1.197.067.091.123.169.192.26.316.463.632.937.949 1.412 0 .011 0 .022.01.022.317.498.622 1.006.927 1.526.304.519.598 1.039.882 1.57.28.53.552 1.06.812 1.602.01.012.022.023.022.047.757 1.557 1.435 3.161 2.022 4.823.045.123.09.259.136.394.17.508.34 1.028.497 1.548.022.044.034.09.045.135.158.542.316 1.084.451 1.627.024.033.024.057.034.09l.306 1.23c.079.318.147.633.214.95.102.474.193.948.282 1.423h-9.034c.542 3.004.846 6.121.846 9.352 0 11.373-3.513 21.55-9.657 29.693H38.446c-2.212-2.935-4.076-6.144-5.568-9.577-.484-1.118-.925-2.27-1.32-3.445-1.774-5.15-2.723-10.74-2.723-16.671 0-3.23.294-6.348.836-9.352h13.802v-3.693h-3.941c3.377-12.865 11.746-23.21 23.413-29.503h56.145zM91.454 27.594c-.578 0-1.142.034-1.706.091-7.569.655-14.131 5.691-17.191 13.203h-9.035c-1.153 2.847-1.819 6.032-1.819 9.487 0 12.571 8.697 22.025 19.02 22.974.565.057 1.129.09 1.695.09.768 0 1.513-.057 2.258-.146 9.973-1.231 17.63-10.572 17.63-22.918 0-3.455-.62-6.64-1.705-9.487h9.036c-2.79-7.32-8.753-12.3-15.936-13.159-.734-.09-1.48-.135-2.247-.135zM82.006.932c.758 0 1.505.022 2.252.047 9.369.312 17.897 2.574 25.188 6.39l.605.322h-56.14C61.486 3.602 70.436 1.214 80.306.968c.565-.014 1.128-.036 1.7-.036zM179.147 85.667c-1.65-1.576-3.179-3.265-4.578-5.056l-.518-.676h87.084c-1.37 1.818-2.878 3.53-4.503 5.135l-.615.597h-23.65c-9 8.59-21.561 13.89-36.154 14.384-.746.026-1.494.05-2.252.05-.57 0-1.133-.022-1.699-.038-14.856-.377-27.647-5.684-36.765-14.396h23.65zM243.4 7.692c12.773 6.902 21.619 18.66 24.284 33.196h-9.037c.543 3.004.848 6.121.848 9.352 0 11.373-3.513 21.55-9.658 29.693h-87.081c-6.122-8.131-9.611-18.296-9.611-29.693 0-3.23.292-6.348.834-9.352h33.558v-3.693h-23.696c3.376-12.865 11.757-23.21 23.413-29.503H243.4zm-27.637 19.902c-.566 0-1.141.034-1.706.091-7.568.655-14.13 5.691-17.18 13.203h-9.035c-1.164 2.847-1.83 6.032-1.83 9.487 0 12.571 8.696 22.025 19.02 22.974.565.057 1.13.09 1.695.09.768 0 1.513-.057 2.258-.146 9.973-1.231 17.63-10.572 17.63-22.918 0-3.455-.62-6.64-1.705-9.487h24.397v-3.693H232.16c-.101-.17-.203-.34-.316-.497-.135-.226-.282-.44-.429-.655-.113-.159-.226-.317-.339-.463-.124-.182-.248-.34-.372-.51-.135-.167-.26-.326-.396-.485-.18-.224-.372-.45-.565-.655-.406-.463-.824-.892-1.264-1.287-.249-.238-.497-.464-.757-.678-.237-.203-.486-.394-.735-.587-.226-.17-.462-.339-.699-.498-.363-.258-.723-.496-1.096-.71-.272-.16-.542-.317-.824-.463-.101-.058-.215-.114-.317-.159-.259-.135-.519-.26-.79-.373-.237-.113-.486-.215-.734-.304-.17-.068-.327-.136-.498-.193-.327-.123-.655-.225-.993-.327-.283-.08-.565-.158-.858-.225-.351-.091-.712-.17-1.074-.226-.361-.068-.723-.125-1.096-.17-.733-.09-1.479-.136-2.246-.136zM206.317.932c.757 0 1.505.022 2.25.047 9.37.312 17.898 2.574 25.19 6.39l.604.322h-56.14c7.576-4.089 16.526-6.477 26.396-6.723.566-.014 1.128-.036 1.7-.036zM325.624 79.934v5.732H293.58v-5.732h32.044zm20.072-39.046c.203-1.04.316-2.146.316-3.355 0-7.183-3.998-11.328-10.91-11.328h-11.735v14.683h-9.037v8.381h11.735c2.462 0 4.541-.542 6.213-1.593 1.084-.655 1.988-1.524 2.71-2.597.79-1.163 1.355-2.575 1.672-4.191h9.036zM327.726 1.9c9.776 0 17.936 1.907 24.266 5.53l.45.262h-70.156V1.899h45.44zm0 71.686H314.33v6.348h-32.042V40.888h27.31v-3.693h-18.275V7.693h70.152c9.668 5.726 14.93 15.575 14.93 28.869 0 1.48-.067 2.925-.18 4.326h-9.036c-1.693 20.815-15.914 32.697-39.462 32.697z" mask="url(#prefix__r)"/>
            <path fill="#FFC404" d="M269.931 85.667L269.931 98.72 274.449 98.72 298.586 98.72 301.974 98.72 301.974 85.667z" mask="url(#prefix__r)"/>
            <path fill="#FFF" d="M483.483 79.935c-.756 1.876-1.704 3.61-2.826 5.205l-.38.527h-23.65c-6.73 9.076-19.16 13.518-33.042 13.975-.8.027-1.603.044-2.411.044-.447 0-.901-.02-1.351-.029-15.388-.27-32.184-5.17-44.521-13.574l-.603-.416h23.649c-.454-.316-.904-.635-1.347-.959l-.657-.49 2.117-4.283h85.022zM400.441 32.01c0-10.482 4.8-18.851 13.193-24.318h62.256c2.913 1.289 5.647 2.734 8.109 4.293l-10.696 22.42-.904 1.886c-.858-.474-1.773-.949-2.71-1.423-8.731-4.462-20.264-8.9-28.09-9.748-.87-.09-1.717-.158-2.485-.158-.554 0-1.062.035-1.547.09-2.7.306-4.394 1.458-4.394 3.92 0 4.281 6.223 6.11 14.288 8.223H435.93v3.693h15.36c5.524 1.931 10.923 4.495 15.102 8.38.902.847 1.738 1.752 2.518 2.723 3.298 4.122 5.365 9.487 5.365 16.614 0 4.235-.746 8.008-2.089 11.328h-85.014l8.82-17.855.937-1.898c1.017.858 2.135 1.682 3.287 2.496 9.477 6.663 22.951 11.87 31.851 12.491.6.046 1.186.068 1.74.068.768 0 1.479-.046 2.146-.125 3.455-.417 5.59-1.954 5.59-4.845 0-11.328-40.728-5.715-48.77-29.377h9.036c-.87-2.586-1.367-5.524-1.367-8.878zM432.837.517c.704 0 1.41.021 2.116.04 10.902.293 21.95 2.828 31.18 6.816l.725.318h-62.262C411.3 3.325 420.294.807 430.984.546c.613-.014 1.228-.029 1.853-.029zM506.292 85.667c0-.023-.004-.045-.004-.069 0-1.902.314-3.668.888-5.266l.15-.397h26.235c.67 1.702 1.04 3.601 1.04 5.663v.035l-.002.034h-23.65c-.028 7.603-4.796 13.04-11.946 13.993-.737.097-1.491.165-2.276.165-.574 0-1.133-.035-1.681-.09-7.357-.73-12.374-6.263-12.404-14.068h23.65zm2.79-14.158c.785 0 1.539.067 2.276.166 5.084.677 8.956 3.624 10.784 7.955l.124.305H496.03c1.829-4.667 5.964-7.8 11.37-8.337.55-.055 1.108-.089 1.682-.089zm13.375-30.621l-3.433 22.193h-18.5l-3.435-22.193h25.368zm11.126-33.195v19.62l-2.09 13.575h-8.9v-3.693h-17.044l-1.525-9.883V7.692h29.559zm-9.032-5.794v5.792h-29.557V1.899h29.557z" mask="url(#prefix__r)"/>
            <path fill="#FFC404" d="M112.587 15.603L156.255 15.603 156.255 12.733 112.587 12.733z" mask="url(#prefix__r)"/>
            <path fill="#9174E8" d="M9.888 70.359L56.753 70.359 56.753 66.915 9.888 66.915z" mask="url(#prefix__r)"/>
            <path fill="#FFC404" d="M324.74 47.676L345.832 47.676 345.832 45.08 324.74 45.08zM447.932 51.986L480.277 51.986 480.277 49.274 447.932 49.274z" mask="url(#prefix__r)"/>
        </g>
    </g>
</svg>
