<?xml version="1.0" encoding="UTF-8"?>
<svg width="33px" height="33px" viewBox="0 0 33 33" version="1.1" xmlns="http://www.w3.org/2000/svg" xmlns:xlink="http://www.w3.org/1999/xlink">
    <!-- Generator: sketchtool 58 (101010) - https://sketch.com -->
    <title>26FF0E42-5C31-44A9-B174-7CD9B35C291F</title>
    <desc>Created with sketchtool.</desc>
    <g id="Page-1" stroke="none" stroke-width="1" fill="none" fill-rule="evenodd">
        <g id="Flixxo--HOME---Pop-Up-Iniciar-Sesion" transform="translate(-569.000000, -462.000000)">
            <g id="Group-8" transform="translate(492.000000, 83.000000)">
                <g id="Group-19-Copy" transform="translate(72.000000, 375.500000)">
                    <g id="Group-9" transform="translate(5.000000, 4.000000)">
                        <g id="Group-3" fill="#FFC404">
                            <g id="Group-2-Copy">
                                <circle id="Oval" cx="16.1086957" cy="16.1086957" r="16.1086957"></circle>
                            </g>
                        </g>
                        <g id="padlock-1" transform="translate(9.913043, 7.434783)" fill="#FFFFFF" fill-rule="nonzero">
                            <path d="M11.737017,7.33321454 L11.2501825,7.33321454 L11.2501825,4.7432288 C11.2501825,2.12954383 9.17037247,0 6.61035155,0 C4.05033064,0 1.97052063,2.12954383 1.97052063,4.7432288 L1.97052063,5.67765502 C1.97052063,6.01282965 2.23877638,6.28706344 2.56664452,6.28706344 C2.89451265,6.28706344 3.1627684,6.01282965 3.1627684,5.67765502 L3.1627684,4.7432288 C3.1627684,2.79989309 4.70937871,1.21881682 6.61035155,1.21881682 C8.51132439,1.21881682 10.0579347,2.79989309 10.0579347,4.7432288 L10.0579347,7.33321454 L1.48037432,7.33321454 C0.665671674,7.33321454 0,8.010335 0,8.84657876 L0,15.0083749 C0,15.8412331 0.662359875,16.5217391 1.48037432,16.5217391 L10.4387916,16.5217391 C10.7666598,16.5217391 11.0349155,16.2475053 11.0349155,15.9123307 C11.0349155,15.5771561 10.7666598,15.3029223 10.4387916,15.3029223 L1.48037432,15.3029223 C1.32140795,15.3029223 1.19224777,15.1708838 1.19224777,15.0083749 L1.19224777,8.84657876 C1.19224777,8.68406985 1.32140795,8.55203136 1.48037432,8.55203136 L11.737017,8.55203136 C11.8959834,8.55203136 12.0251435,8.68406985 12.0251435,8.84657876 L12.0251435,15.0083749 C12.0251435,15.3435495 12.2933993,15.6177833 12.6212674,15.6177833 C12.9491356,15.6177833 13.2173913,15.3435495 13.2173913,15.0083749 L13.2173913,8.84657876 C13.2173913,8.0137206 12.5550314,7.33321454 11.737017,7.33321454 Z" id="Path"></path>
                            <path d="M8.47854551,11.3698499 C8.14391945,11.3698499 7.87013449,11.6436348 7.87013449,11.9782609 C7.87013449,12.4447093 7.48818758,12.8266562 7.02173913,12.8266562 C6.55529069,12.8266562 6.17334377,12.4447093 6.17334377,11.9782609 C6.17334377,11.5118124 6.55529069,11.1298655 7.02173913,11.1298655 C7.35636519,11.1298655 7.63015015,10.8560806 7.63015015,10.5214545 C7.63015015,10.1868284 7.35636519,9.91304348 7.02173913,9.91304348 C5.88265851,9.91304348 4.95652174,10.8391802 4.95652174,11.9782609 C4.95652174,13.1173415 5.88265851,14.0434783 7.02173913,14.0434783 C8.16081975,14.0434783 9.08695652,13.1173415 9.08695652,11.9782609 C9.08695652,11.6436348 8.81317156,11.3698499 8.47854551,11.3698499 Z" id="Path"></path>
                        </g>
                    </g>
                </g>
            </g>
        </g>
    </g>
</svg>