<svg xmlns="http://www.w3.org/2000/svg" xmlns:xlink="http://www.w3.org/1999/xlink" width="60" height="59" viewBox="0 0 60 59">
    <defs>
        <path id="prefix__a" d="M0.001 0.449L58.181 0.449 58.181 58.664 0.001 58.664z"/>
    </defs>
    <g fill="none" fill-rule="evenodd" opacity=".8" transform="translate(1.502)">
        <mask id="prefix__b" fill="#fff">
            <use xlink:href="#prefix__a"/>
        </mask>
        <path fill="#FFC404" d="M58.18 29.437c.066 16.075-12.904 29.161-28.97 29.227C13.144 58.73.067 45.752 0 29.677-.065 13.6 12.906.517 28.97.449h.122C45.124.418 58.147 13.395 58.181 29.437" mask="url(#prefix__b)"/>
        <path fill="#FFF" d="M40.217 27.782L23.11 18.725c-.537-.284-1.182-.264-1.7.053-.52.314-.838.88-.838 1.493v18.123c.006.97.788 1.75 1.746 1.744.276-.001.547-.07.792-.2l17.107-9.056c.843-.445 1.171-1.499.731-2.353-.163-.317-.418-.575-.731-.74v-.007z"/>
    </g>
</svg>
