<svg xmlns="http://www.w3.org/2000/svg" xmlns:xlink="http://www.w3.org/1999/xlink" width="177" height="54" viewBox="0 0 177 54">
    <defs>
        <linearGradient id="prefix__b" x1="50%" x2="50%" y1="0%" y2="100%">
            <stop offset="0%" stop-color="#257CB0"/>
            <stop offset="28.6%" stop-color="#4A93B5"/>
            <stop offset="76.7%" stop-color="#78BCBB"/>
            <stop offset="100%" stop-color="#89CFBD"/>
        </linearGradient>
        <linearGradient id="prefix__e" x1=".001%" x2="100.001%" y1="49.999%" y2="49.999%">
            <stop offset="0%" stop-color="#52C1AD"/>
            <stop offset="100%" stop-color="#DEE89A"/>
        </linearGradient>
        <linearGradient id="prefix__h" x1="50%" x2="50%" y1="0%" y2="100%">
            <stop offset="0%" stop-color="#EC413D"/>
            <stop offset="16.7%" stop-color="#DA4452"/>
            <stop offset="57.5%" stop-color="#B0487A"/>
            <stop offset="86.2%" stop-color="#954A92"/>
            <stop offset="100%" stop-color="#8A4A9D"/>
        </linearGradient>
        <linearGradient id="prefix__k" x1="50.001%" x2="50.001%" y1=".001%" y2="99.997%">
            <stop offset="0%" stop-color="#F58879"/>
            <stop offset="11.9%" stop-color="#F69079"/>
            <stop offset="71.3%" stop-color="#FCB877"/>
            <stop offset="100%" stop-color="#FEC874"/>
        </linearGradient>
        <path id="prefix__a" d="M22.165 12.142L15.114 8.07 1.514.218C.757-.218.005.046.005.957v31.995c0 .683.538.977 1.194.599.655-.38 13.914-8.035 13.914-8.035l7.05-4.07 6.778-3.913c.796-.46.72-1.09.048-1.45-.67-.362-6.825-3.941-6.825-3.941z"/>
        <path id="prefix__d" d="M22.165 12.142L15.114 8.07 1.514.218C.757-.218.005.046.005.957v31.995c0 .683.538.977 1.194.599.655-.38 13.914-8.035 13.914-8.035l7.05-4.07 6.778-3.913c.796-.46.72-1.09.048-1.45-.67-.362-6.825-3.941-6.825-3.941z"/>
        <path id="prefix__g" d="M22.165 12.142L15.114 8.07 1.514.218C.757-.218.005.046.005.957v31.995c0 .683.538.977 1.194.599.655-.38 13.914-8.035 13.914-8.035l7.05-4.07 6.778-3.913c.796-.46.72-1.09.048-1.45-.67-.362-6.825-3.941-6.825-3.941z"/>
        <path id="prefix__j" d="M22.165 12.142L15.114 8.07 1.514.218C.757-.218.005.046.005.957v31.995c0 .683.538.977 1.194.599.655-.38 13.914-8.035 13.914-8.035l7.05-4.07 6.778-3.913c.796-.46.72-1.09.048-1.45-.67-.362-6.825-3.941-6.825-3.941z"/>
    </defs>
    <g fill="none" fill-rule="evenodd">
        <path fill-rule="nonzero" stroke="#979797" stroke-width="1.5" d="M168.828 51.84H6.132C2.75 51.84.006 49.101 0 45.72V6.127C.005 2.744 2.748.003 6.132 0h162.694c3.384.004 6.126 2.744 6.133 6.127V45.72c.002 3.376-2.753 6.12-6.131 6.12h0z" transform="translate(1 1)"/>
        <g>
            <g transform="translate(1 1) translate(18.792 8.424) translate(.049 .453)">
                <mask id="prefix__c" fill="#fff">
                    <use xlink:href="#prefix__a"/>
                </mask>
                <path fill="url(#prefix__b)" fill-rule="nonzero" d="M0.006 -0.526L0.006 34.114 17.474 16.794z" mask="url(#prefix__c)"/>
            </g>
            <g transform="translate(1 1) translate(18.792 8.424) translate(.049 .453)">
                <mask id="prefix__f" fill="#fff">
                    <use xlink:href="#prefix__d"/>
                </mask>
                <path fill="url(#prefix__e)" fill-rule="nonzero" d="M22.165 12.142L15.114 8.071 0.006 -0.652 0.006 -0.526 17.474 16.794z" mask="url(#prefix__f)"/>
            </g>
            <g transform="translate(1 1) translate(18.792 8.424) translate(.049 .453)">
                <mask id="prefix__i" fill="#fff">
                    <use xlink:href="#prefix__g"/>
                </mask>
                <path fill="url(#prefix__h)" fill-rule="nonzero" d="M0.006 34.114L0.006 34.24 15.114 25.516 22.165 21.446 17.474 16.794z" mask="url(#prefix__i)"/>
            </g>
            <g transform="translate(1 1) translate(18.792 8.424) translate(.049 .453)">
                <mask id="prefix__l" fill="#fff">
                    <use xlink:href="#prefix__j"/>
                </mask>
                <path fill="url(#prefix__k)" fill-rule="nonzero" d="M22.165 12.142L17.474 16.794 22.165 21.446 30.223 16.794z" mask="url(#prefix__l)"/>
            </g>
            <path fill="#F9F9F9" fill-rule="nonzero" d="M110.023 24.018c-.656 0-1.255-.121-1.797-.363s-.997-.614-1.365-1.116h-.11c.073.588.11 1.145.11 1.672v4.146h-1.525V13.76h1.24l.211 1.379h.074c.392-.552.849-.95 1.37-1.195.52-.245 1.118-.368 1.792-.368 1.336 0 2.367.457 3.093 1.37s1.089 2.194 1.089 3.842c0 1.654-.37 2.94-1.107 3.856-.738.916-1.763 1.374-3.075 1.374zm-.22-9.146c-1.03 0-1.775.286-2.234.855-.46.57-.696 1.477-.708 2.721v.34c0 1.416.236 2.428.708 3.038.472.61 1.229.914 2.27.914.87 0 1.552-.352 2.046-1.056.493-.705.74-1.676.74-2.914 0-1.256-.247-2.22-.74-2.891-.493-.672-1.188-1.007-2.083-1.007zm7.935 8.962h-1.526V9.532h1.526v14.302zm8.772 0l-.303-1.434h-.074c-.502.632-1.003 1.06-1.503 1.282-.499.224-1.123.336-1.87.336-.999 0-1.781-.257-2.349-.772-.567-.515-.85-1.246-.85-2.197 0-2.034 1.627-3.1 4.88-3.199l1.711-.055v-.625c0-.79-.17-1.374-.51-1.75-.34-.378-.885-.566-1.632-.566-.84 0-1.79.257-2.85.772l-.468-1.168c.497-.27 1.04-.48 1.632-.634.591-.153 1.184-.23 1.778-.23 1.201 0 2.091.267 2.67.8.58.533.869 1.388.869 2.565v6.875h-1.13zm-3.447-1.075c.95 0 1.696-.26 2.238-.781.542-.52.814-1.25.814-2.188v-.91l-1.527.064c-1.213.043-2.087.231-2.624.566-.536.334-.804.853-.804 1.558 0 .551.167.971.501 1.259.334.288.801.432 1.402.432zm5.463-8.999h1.636l2.206 5.745c.484 1.312.785 2.258.901 2.84h.074c.08-.312.247-.847.5-1.604.255-.757 1.087-3.083 2.496-6.98h1.637l-4.33 11.47c-.428 1.134-.93 1.938-1.503 2.414-.573.475-1.276.712-2.109.712-.466 0-.925-.052-1.38-.156v-1.223c.338.074.715.11 1.132.11 1.048 0 1.795-.588 2.243-1.764l.56-1.434-4.063-10.13zm-46.767.936c.484.401 1.495 1.243 1.495 2.845 0 1.559-.885 2.298-1.77 2.992-.274.274-.59.57-.59 1.034 0 .462.316.715.549.905l.758.589c.927.78 1.77 1.497 1.77 2.951 0 1.98-1.918 3.982-5.542 3.982-3.055 0-4.53-1.454-4.53-3.014 0-.758.378-1.832 1.623-2.57 1.305-.801 3.076-.905 4.024-.97-.296-.379-.632-.78-.632-1.432 0-.357.106-.568.21-.822-.232.021-.464.042-.675.042-2.232 0-3.496-1.665-3.496-3.307 0-.97.443-2.045 1.348-2.824 1.201-.99 2.634-1.159 3.773-1.159h4.339l-1.349.759H81.76zm-1.497 9.356c-.168-.022-.274-.022-.484-.022-.19 0-1.329.043-2.213.339-.463.167-1.812.673-1.812 2.17 0 1.495 1.455 2.571 3.71 2.571 2.02 0 3.097-.971 3.097-2.276 0-1.077-.696-1.644-2.298-2.782zm.612-4.004c.484-.485.525-1.159.525-1.538 0-1.517-.905-3.877-2.654-3.877-.548 0-1.138.274-1.475.696-.358.442-.464 1.01-.464 1.559 0 1.411.822 3.75 2.635 3.75.526 0 1.094-.252 1.433-.59zm-12.38 3.667c-3.345 0-5.133-2.609-5.133-4.965 0-2.757 2.25-5.112 5.45-5.112 3.09 0 5.026 2.419 5.026 4.965 0 2.481-1.914 5.112-5.344 5.112zm2.629-1.704c.505-.674.632-1.515.632-2.336 0-1.852-.884-5.385-3.493-5.385-.694 0-1.388.274-1.892.716-.821.736-.969 1.662-.969 2.567 0 2.081 1.03 5.51 3.577 5.51.82 0 1.662-.4 2.145-1.072zM57.09 23.715c-3.345 0-5.133-2.609-5.133-4.965 0-2.757 2.251-5.112 5.45-5.112 3.091 0 5.026 2.419 5.026 4.965 0 2.481-1.913 5.112-5.343 5.112zm2.63-1.704c.505-.674.632-1.515.632-2.336 0-1.852-.885-5.385-3.493-5.385-.694 0-1.389.274-1.893.716-.82.736-.968 1.662-.968 2.567 0 2.081 1.03 5.51 3.577 5.51.82 0 1.662-.4 2.145-1.072zm-9.37 1.374l-3.025.698c-1.227.19-2.327.359-3.49.359-5.837 0-8.057-4.294-8.057-7.657 0-4.103 3.15-7.909 8.545-7.909 1.142 0 2.24.17 3.235.444 1.586.445 2.326.994 2.792 1.312l-1.756 1.67-.74.169.528-.846c-.718-.698-2.031-1.988-4.526-1.988-3.342 0-5.859 2.54-5.859 6.24 0 3.975 2.877 7.719 7.487 7.719 1.355 0 2.051-.274 2.686-.529v-3.404l-3.193.169 1.691-.91h4.484l-.549.528c-.15.128-.17.17-.212.338-.022.19-.042.805-.042 1.016v2.581z" transform="translate(1 1) translate(18.792 8.424)"/>
            <path fill="#F9F9F9" fill-rule="nonzero" d="M88.443 22.776c-.698-.064-.844-.19-.844-1.016V9.79l.011-.136c.086-.74.297-.867.953-1.248h-3.025l-1.587.761h1.617v.01l-.001-.008v13.057c0 .423-.084.487-.57 1.12h3.743l.783-.464c-.36-.043-.72-.064-1.08-.106zm8.607.195c-.23.126-.462.273-.692.378-.694.315-1.408.399-2.04.399-.67 0-1.721-.043-2.793-.82-1.49-1.05-2.142-2.857-2.142-4.432 0-3.255 2.647-4.851 4.81-4.851.757 0 1.535.189 2.165.588 1.049.692 1.322 1.595 1.468 2.079l-4.935 1.996-1.617.126c.524 2.667 2.33 4.22 4.326 4.22 1.071 0 1.849-.377 2.563-.733l-1.113 1.05zm-1.974-6.26c.398-.147.608-.274.608-.567 0-.84-.944-1.807-2.08-1.807-.84 0-2.415.652-2.415 2.92 0 .357.042.735.064 1.114l3.823-1.66zm4-2.922v1.385h-.168V13.79h-.458v-.144h1.085v.144h-.458zm1.89 1.385v-1.398h-.007l-.427 1.398h-.132l-.43-1.398h-.006v1.398h-.153v-1.53h.262l.39 1.237h.005l.384-1.236h.266v1.53h-.152z" transform="translate(1 1) translate(18.792 8.424)"/>
            <path fill="#F9F9FA" fill-rule="nonzero" d="M39.98 4.758h-1.052c0-.144-.1-.554-.299-1.228h-1.517c-.206.663-.309 1.073-.309 1.228h-.988c0-.085.255-.786.767-2.102.51-1.315.766-2.04.766-2.174h1.242c0 .125.231.84.695 2.143.463 1.304.694 2.015.694 2.133zm-1.518-1.855c-.374-1.13-.562-1.741-.562-1.833h-.052c0 .085-.194.696-.581 1.833h1.195zm5.752 1.855h-.81c0-.09-.302-.563-.904-1.422-.63-.904-.99-1.522-1.077-1.855h-.052c.054.48.082.913.082 1.3 0 .541.015 1.2.046 1.978h-.808c.032-.68.049-1.424.049-2.237 0-.799-.017-1.479-.05-2.04h.976c0 .117.27.58.81 1.39.577.86.907 1.444.993 1.75h.049c-.053-.488-.079-.926-.079-1.313 0-.593-.015-1.202-.046-1.826h.821c-.03.543-.045 1.223-.045 2.04 0 .822.014 1.567.045 2.235zm4.76-2.286c0 .622-.2 1.165-.597 1.63-.4.464-.957.695-1.676.695-.324 0-.77-.013-1.34-.039.029-.661.043-1.407.043-2.236 0-.797-.014-1.477-.043-2.04h.575c.094 0 .234-.003.42-.01.186-.006.308-.01.365-.01.79 0 1.363.198 1.72.592.355.394.533.867.533 1.418zm-.896.142c0-.42-.123-.775-.368-1.063-.245-.288-.62-.432-1.123-.432-.094 0-.223.01-.388.03.022.438.033.895.033 1.373 0 .523.01 1.042.033 1.556.14.029.283.043.426.043.471 0 .82-.146 1.046-.439.227-.292.34-.648.34-1.068zm5.286 2.144h-.973c-.254-.775-.448-1.253-.584-1.435-.136-.182-.355-.272-.657-.272-.127 0-.248 0-.364.003 0 .563.01 1.13.03 1.704h-.914c.029-.661.043-1.407.043-2.236 0-.797-.014-1.477-.043-2.04h.568c.066 0 .203-.003.413-.01.209-.006.402-.01.58-.01 1.004 0 1.507.344 1.507 1.032 0 .545-.287.925-.86 1.14v.049c.22.061.414.234.58.517.167.283.391.803.674 1.558zm-1.232-3.021c0-.436-.28-.654-.84-.654-.206 0-.388.015-.546.046.024.34.036.782.036 1.327.12.004.223.006.306.006.696 0 1.044-.241 1.044-.725zm5.94.804c0 .672-.207 1.23-.618 1.672-.412.442-.921.664-1.528.664-.578 0-1.062-.203-1.451-.61-.39-.406-.585-.922-.585-1.548 0-.672.206-1.23.618-1.672.411-.442.92-.663 1.527-.663.578 0 1.062.202 1.452.607.39.406.584.922.584 1.55zm-.907.096c0-.458-.117-.83-.351-1.114-.235-.285-.524-.427-.867-.427-.32 0-.592.144-.815.43-.223.287-.335.65-.335 1.088 0 .455.118.825.353 1.111.235.286.524.429.865.429.32 0 .592-.144.815-.432.223-.288.335-.65.335-1.085zm2.763 2.121h-.93c.03-.678.044-1.424.044-2.236 0-.8-.015-1.48-.043-2.04h.93c-.03.552-.044 1.232-.044 2.04 0 .825.015 1.57.043 2.236zm4.76-2.286c0 .622-.199 1.165-.597 1.63-.399.464-.957.695-1.675.695-.325 0-.771-.013-1.34-.039.028-.661.042-1.407.042-2.236 0-.797-.014-1.477-.042-2.04h.574c.094 0 .235-.003.42-.01.187-.006.308-.01.365-.01.79 0 1.363.198 1.72.592.355.394.533.867.533 1.418zm-.896.142c0-.42-.123-.775-.368-1.063-.245-.288-.62-.432-1.123-.432-.094 0-.223.01-.388.03.022.438.033.895.033 1.373 0 .523.01 1.042.033 1.556.14.029.283.043.426.043.471 0 .82-.146 1.046-.439.227-.292.34-.648.34-1.068zm7.211 2.144h-1.05c0-.144-.1-.554-.3-1.228h-1.517c-.206.663-.31 1.073-.31 1.228h-.987c0-.085.255-.786.767-2.102.51-1.315.766-2.04.766-2.174h1.242c0 .125.232.84.695 2.143.462 1.304.694 2.015.694 2.133zm-1.517-1.855c-.374-1.13-.562-1.741-.562-1.833h-.052c0 .085-.194.696-.581 1.833h1.195zm5.348-1.301c0 .523-.194.91-.583 1.16-.388.249-.865.374-1.43.374-.103 0-.176-.002-.22-.007 0 .412.012.955.036 1.63h-.923c.028-.633.043-1.379.043-2.237 0-.788-.015-1.468-.043-2.04h.571c.081 0 .237-.003.467-.01.23-.006.429-.01.597-.01.416 0 .768.095 1.054.283.287.189.431.474.431.857zm-.847.18c0-.468-.31-.702-.933-.702-.155 0-.32.016-.492.049.024.414.036.882.036 1.406.055.004.118.006.19.006.8 0 1.199-.252 1.199-.758zm4.786-.18c0 .523-.194.91-.583 1.16-.388.249-.865.374-1.43.374-.103 0-.176-.002-.22-.007 0 .412.012.955.036 1.63h-.923c.028-.633.043-1.379.043-2.237 0-.788-.015-1.468-.043-2.04h.571c.081 0 .237-.003.467-.01.23-.006.429-.01.597-.01.416 0 .768.095 1.054.283.287.189.431.474.431.857zm-.847.18c0-.468-.31-.702-.933-.702-.155 0-.32.016-.492.049.024.414.036.882.036 1.406.055.004.118.006.19.006.8 0 1.199-.252 1.199-.758zm7.287.76c0 .671-.205 1.229-.617 1.671-.412.443-.921.664-1.527.664-.578 0-1.062-.203-1.452-.61-.39-.406-.584-.922-.584-1.548 0-.672.205-1.23.617-1.672.412-.442.921-.663 1.527-.663.578 0 1.062.202 1.452.607.39.406.584.922.584 1.55zm-.906.095c0-.458-.117-.83-.351-1.114-.235-.285-.524-.427-.867-.427-.32 0-.592.144-.815.43-.223.287-.335.65-.335 1.088 0 .455.118.825.353 1.111.236.286.524.429.865.429.32 0 .592-.144.815-.432.223-.288.335-.65.335-1.085zm5.358 2.121h-.811c0-.09-.301-.563-.903-1.422-.63-.904-.99-1.522-1.078-1.855h-.052c.055.48.082.913.082 1.3 0 .541.015 1.2.046 1.978h-.808c.033-.68.05-1.424.05-2.237 0-.799-.017-1.479-.05-2.04h.975c0 .117.27.58.811 1.39.576.86.907 1.444.992 1.75h.05c-.053-.488-.08-.926-.08-1.313 0-.593-.015-1.202-.045-1.826h.82c-.03.543-.045 1.223-.045 2.04 0 .822.015 1.567.046 2.235z" transform="translate(1 1) translate(18.792 8.424)"/>
        </g>
    </g>
</svg>
