<?xml version="1.0" encoding="UTF-8"?>
<svg width="21px" height="21px" viewBox="0 0 21 21" version="1.1" xmlns="http://www.w3.org/2000/svg" xmlns:xlink="http://www.w3.org/1999/xlink">
    <!-- Generator: sketchtool 58 (101010) - https://sketch.com -->
    <title>8DC5CCE6-E067-48FE-957C-E41050B4D8C0</title>
    <desc>Created with sketchtool.</desc>
    <g id="Page-1" stroke="none" stroke-width="1" fill="none" fill-rule="evenodd">
        <g id="Flixxo--HOME---Usuario-NO-Registrado-" transform="translate(-449.000000, -23.000000)" fill="#FFFFFF">
            <path d="M450.552508,31.4288429 C450.552508,27.6212154 453.710691,24.5228696 457.592422,24.5228696 C461.474153,24.5228696 464.632799,27.6212154 464.632799,31.4288429 C464.632799,35.2364704 461.474153,38.3343627 457.592422,38.3343627 C453.710691,38.3343627 450.552508,35.2364704 450.552508,31.4288429 M469.772533,42.7002548 L463.993858,37.0318965 C465.351724,35.5407723 466.185307,33.5807239 466.185307,31.4288429 C466.185307,26.7813242 462.330391,23 457.592422,23 C452.854454,23 449,26.7813242 449,31.4288429 C449,36.0763616 452.854454,39.8572323 457.592422,39.8572323 C459.577672,39.8572323 461.403417,39.186952 462.860222,38.0735974 L468.674497,43.7773291 C468.826142,43.9256252 469.024944,44 469.223746,44 C469.422086,44 469.620889,43.9256252 469.772533,43.7773291 C470.075822,43.4793763 470.075822,42.9977541 469.772533,42.7002548" id="Fill-103"></path>
        </g>
    </g>
</svg>