<?xml version="1.0" encoding="UTF-8"?>
<svg width="37px" height="37px" viewBox="0 0 37 37" version="1.1" xmlns="http://www.w3.org/2000/svg" xmlns:xlink="http://www.w3.org/1999/xlink">
    <title>Fill 10</title>
    <g id="Page-1" stroke="none" stroke-width="1" fill="none" fill-rule="evenodd">
        <g id="33-Flixxo--Buscar" transform="translate(-101.000000, -153.000000)" fill="#F0F0F0">
            <g id="Group" transform="translate(55.000000, 130.000000)">
                <path d="M48.6414416,38.0391707 C48.6414416,44.9499707 54.2444416,50.5529707 61.1552416,50.5529707 C68.0660416,50.5529707 73.6690416,44.9499707 73.6690416,38.0391707 C73.6690416,31.1283707 68.0660416,25.5253671 61.1552416,25.5253671 L61.1526416,25.5253671 C54.2470416,25.5201707 48.6466416,31.1153707 48.6414416,38.0209707 L48.6414416,38.0391707 Z M81.1466416,59.6503707 C80.9412416,59.6321707 80.7488416,59.5385707 80.6058416,59.3903707 L71.4330416,50.2331707 C71.2718416,50.0719707 71.1782416,49.8561707 71.1730416,49.6299707 L71.1730416,48.9019707 C65.1332416,54.5413707 55.6640416,54.2137707 50.0246416,48.1713707 C44.3852416,42.1315707 44.7128416,32.6649707 50.7526416,27.0255707 C56.7950416,21.3861707 66.2642416,21.7111707 71.9010416,27.7535707 C77.2310416,33.4631707 77.2726416,42.3109707 71.9972416,48.0699707 L72.7278416,48.0699707 C72.9566416,48.0699707 73.1750416,48.1661707 73.3310416,48.3299707 L82.5064416,57.4897707 C82.6572416,57.6327707 82.7508416,57.8225707 82.7664416,58.0305707 L82.7664416,58.1553707 C82.7508416,58.3607707 82.6572416,58.5557707 82.5064416,58.6987707 L81.8044416,59.4007707 C81.6614416,59.5489707 81.4690416,59.6425707 81.2636416,59.6607707 L81.1466416,59.6503707 Z" id="Fill-10"></path>
            </g>
        </g>
    </g>
</svg>