<?xml version="1.0" encoding="UTF-8"?>
<svg width="23px" height="18px" viewBox="0 0 23 18" version="1.1" xmlns="http://www.w3.org/2000/svg" xmlns:xlink="http://www.w3.org/1999/xlink">
    <!-- Generator: sketchtool 58 (101010) - https://sketch.com -->
    <title>6D57BD5C-FFC4-497E-9213-6CB5760FE9A6</title>
    <desc>Created with sketchtool.</desc>
    <g id="Page-1" stroke="none" stroke-width="1" fill="none" fill-rule="evenodd">
        <g id="Flixxo--HOME--Buscador-Activado" transform="translate(-161.000000, -696.000000)" fill="#FFFFFF">
            <g id="Group-14" transform="translate(56.000000, 690.000000)">
                <g id="Atoms/Social/Twitter-Dark" transform="translate(102.000000, -0.000000)">
                    <path d="M10.5265515,23.5786976 C18.7818911,23.5786976 23.2973332,16.8445338 23.2973332,11.0053148 C23.2973332,10.8136179 23.2973332,10.6229978 23.284207,10.4334548 C24.1625742,9.80774724 24.921711,9.03342071 25.5233324,8.14601451 C24.7040335,8.50356167 23.8355109,8.73833661 22.9462051,8.84172374 C23.8825468,8.28924877 24.5848031,7.42122765 24.9195233,6.39704889 C24.0378745,6.91183065 23.0741864,7.27476255 22.0689317,7.46969037 C20.3690778,5.69057017 17.5261432,5.60441423 15.7179974,7.2779934 C14.5530395,8.35709657 14.0586161,9.96605878 14.419589,11.5007115 C10.8109544,11.3230149 7.44843765,9.64405095 5.1699333,6.88382996 C3.97762905,8.90310985 4.58690746,11.4856342 6.55913182,12.7822811 C5.84484313,12.7618191 5.14586844,12.572276 4.52127603,12.2287292 L4.52127603,12.2858075 C4.52236989,14.3890894 6.02861112,16.2005181 8.12225362,16.6172975 C7.46156393,16.7949941 6.76805853,16.8208409 6.09643026,16.6926839 C6.68383153,18.4933431 8.36946533,19.72645 10.2891845,19.7619894 C8.69981017,20.9918654 6.73633667,21.659574 4.71488874,21.6574201 C4.35829133,21.6563431 4.00169391,21.6358811 3.64619035,21.5938801 C5.69936014,22.890527 8.08834405,23.5786976 10.5265515,23.5754667" id="Fill-1"></path>
                </g>
            </g>
        </g>
    </g>
</svg>