<?xml version="1.0" encoding="UTF-8"?>
<svg width="33px" height="33px" viewBox="0 0 33 33" version="1.1" xmlns="http://www.w3.org/2000/svg" xmlns:xlink="http://www.w3.org/1999/xlink">
    <!-- Generator: sketchtool 58 (101010) - https://sketch.com -->
    <title>4389FFEC-FA31-402D-BC4A-DC42E5C664F1</title>
    <desc>Created with sketchtool.</desc>
    <defs>
        <path d="M20.2029099,16.741397 C19.9830509,16.499191 19.6089626,16.4826016 19.3694148,16.7049002 C19.1298669,16.9271989 19.1134596,17.3054383 19.3333185,17.5476443 C20.0585249,18.3472559 20.4588651,19.3857555 20.4588651,20.4707056 L20.4588651,23.0354348 C20.4588651,23.1548788 20.3604208,23.2544155 20.2422876,23.2544155 L12.1337581,23.2544155 C12.015625,23.2544155 11.9171807,23.1548788 11.9171807,23.0354348 L11.9171807,20.4707056 C11.9171807,18.0884604 13.8335632,16.1541304 16.1863821,16.1541304 C18.339031,16.1541304 20.0913397,14.382377 20.0913397,12.2058411 C20.0913397,10.0293051 18.3423125,8.26086957 16.1896636,8.26086957 C14.0370147,8.26086957 12.2847061,10.032623 12.2847061,12.2091589 C12.2847061,12.8594654 12.4454984,13.506454 12.7473943,14.0771311 C12.9016237,14.3691055 13.2593047,14.475278 13.5480747,14.3193371 C13.8368447,14.1633963 13.9418519,13.8017463 13.7876225,13.5097719 C13.577608,13.1116251 13.4660378,12.6637099 13.4660378,12.2091589 C13.4660378,10.6895652 14.6867472,9.45531005 16.1896636,9.45531005 C17.69258,9.45531005 18.9132895,10.6895652 18.9132895,12.2091589 C18.9132895,13.7287527 17.69258,14.9630078 16.1896636,14.9630078 C13.1838307,14.9630078 10.7391304,17.4348361 10.7391304,20.4740235 L10.7391304,23.0387527 C10.7391304,23.8184569 11.3658925,24.4521739 12.1370396,24.4521739 L20.2455691,24.4521739 C21.0167162,24.4521739 21.6434783,23.8184569 21.6434783,23.0387527 L21.6434783,20.4740235 C21.6434783,19.0871454 21.1315679,17.7633072 20.2029099,16.741397 Z" id="path-1"></path>
    </defs>
    <g id="Page-1" stroke="none" stroke-width="1" fill="none" fill-rule="evenodd">
        <g id="Flixxo--HOME---Pop-Up-Iniciar-Sesión" transform="translate(-569.000000, -399.000000)">
            <g id="Group-8" transform="translate(492.000000, 83.000000)">
                <g id="Group-16-Copy" transform="translate(73.000000, 312.000000)">
                    <g id="Group-13" transform="translate(4.782609, 4.130435)">
                        <g id="Group-2">
                            <g id="Group-12">
                                <circle id="Oval" fill="#FFC404" cx="16.1086957" cy="16.1086957" r="16.1086957"></circle>
                                <mask id="mask-2" fill="white">
                                    <use xlink:href="#path-1"></use>
                                </mask>
                                <use id="Path" fill="#FFFFFF" fill-rule="nonzero" xlink:href="#path-1"></use>
                            </g>
                        </g>
                        <g id="user-2" transform="translate(10.739130, 8.260870)"></g>
                    </g>
                </g>
            </g>
        </g>
    </g>
</svg>